<svg class="logotype" fill="none" xmlns="http://www.w3.org/2000/svg" viewBox="0 0 650 156"><path class="logotype--tagline" d="M70.7 152.8a8.3 8.3 0 01-2.6-6.3c0-2.5.8-4.6 2.6-6.3 1.8-1.7 4-2.6 6.7-2.6s5 1 6.8 3l-1.9 2a8.2 8.2 0 00-2.3-1.7c-.8-.3-1.6-.4-2.6-.4-1.8 0-3.3.5-4.5 1.6a5.5 5.5 0 00-1.8 4.3c0 1.7.6 3.1 1.8 4.3a5.8 5.8 0 004.2 1.7c1 0 2-.1 2.7-.5.7-.3 1.5-.8 2.3-1.6l1.9 2c-1.9 2-4.1 3-6.8 3-2.6 0-4.8-.9-6.5-2.5zm264.8-.3l1.9-2.2a8.5 8.5 0 005.5 2.3c1 0 1.7-.2 2.2-.6.6-.4.9-1 .9-1.6 0-.7-.3-1.2-.8-1.6l-2.7-1c-1.3-.3-2.3-.5-3-.8-.6-.2-1.2-.6-1.7-1-1-.7-1.6-1.9-1.6-3.5 0-1.5.6-2.7 1.8-3.6a7.2 7.2 0 014.3-1.3c1.1 0 2.3.2 3.4.6a9 9 0 012.8 1.5l-1.6 2.1a8.1 8.1 0 00-4.7-1.6 4 4 0 00-2 .6c-.6.3-1 .8-1 1.5s.4 1.3 1 1.6c.5.4 1.6.8 3.4 1.2 1.8.4 3.2 1 4 1.8 1 .7 1.4 1.8 1.4 3.3 0 1.5-.5 2.7-1.7 3.6a7 7 0 01-4.5 1.4c-2.7 0-5.2-.9-7.3-2.7zm233 0l1.8-2.2a8.5 8.5 0 005.5 2.3c1 0 1.7-.2 2.2-.6.6-.4.9-1 .9-1.6 0-.7-.3-1.2-.8-1.6-.5-.3-1.4-.6-2.7-1-1.3-.3-2.3-.5-3-.8a7 7 0 01-1.7-1c-1-.7-1.6-1.9-1.6-3.5 0-1.5.6-2.7 1.8-3.6a7.2 7.2 0 014.4-1.3 10.6 10.6 0 016.1 2l-1.5 2.2c-.5-.4-1.3-.8-2.1-1-1-.4-1.8-.5-2.7-.5a4 4 0 00-2 .5c-.6.3-.9.9-.9 1.5 0 .7.3 1.3.8 1.6.6.4 1.8.8 3.5 1.2 1.8.4 3.2 1 4 1.8 1 .7 1.4 1.8 1.4 3.3 0 1.5-.5 2.7-1.7 3.6a7 7 0 01-4.5 1.4c-2.7 0-5.1-.9-7.3-2.7zm-202.6.2a8.3 8.3 0 01-2.7-6.3c0-2.5.9-4.6 2.7-6.2 1.7-1.7 3.9-2.6 6.5-2.6a9 9 0 016.5 2.6 8.3 8.3 0 012.7 6.2c0 2.5-.9 4.6-2.7 6.3a9.1 9.1 0 01-6.5 2.5c-2.6 0-4.8-.8-6.5-2.5zm137 0a8.3 8.3 0 01-2.7-6.3c0-2.5 1-4.6 2.7-6.2 1.7-1.7 4-2.6 6.5-2.6 2.6 0 4.8.9 6.6 2.6a8.3 8.3 0 012.6 6.2c0 2.5-.9 4.6-2.6 6.3a9.1 9.1 0 01-6.6 2.5c-2.6 0-4.8-.8-6.5-2.5zm-79.6.5c-1.4-1.3-2-3.2-2-5.6V138h2.9v9.5c0 1.5.4 2.7 1.2 3.6.8 1 1.9 1.4 3.2 1.4a4 4 0 003.3-1.4c.8-.9 1.2-2.1 1.2-3.6V138h2.9v9.6c0 2.4-.7 4.3-2 5.6a7.4 7.4 0 01-5.4 2c-2.2 0-4-.7-5.3-2zM136.7 155v-17h12.2v2.7h-9.3v4.5h8.4v2.6h-8.4v4.5h9.7v2.7h-12.6zm29 0l7.6-17h3.2l7.7 17H181l-1.7-3.8h-8.8l-1.7 3.8h-3.2zm62.2 0v-17h3v17h-3zm26.2 0l-7-17h3.3l5.4 12.7L261 138h3.3l-7 17h-3.3zm26.2 0v-17h12.2v2.7h-9.3v4.5h8.4v2.6h-8.4v4.5h9.6v2.7h-12.5zm-177.4 0v-17h6.5c2.6 0 4.5.5 5.7 1.4 1.1.8 1.7 2.2 1.7 4.2 0 2.8-1.3 4.5-3.8 5.3l4.6 6.1h-3.8l-4.1-5.7h-3.9v5.7h-3zm99.4 0v-14.3H197V138h13.5v2.7h-5.3V155h-3zm193.4 0v-17h3v14.3h7.9v2.7h-11zm60.2 0v-14.3h-5.3V138H464v2.7h-5.3V155h-3zm24.8 0v-17h3v17h-3zm54 0v-17h2.9l10.1 12.7V138h3v17h-3.2l-10-12.4V155h-2.9zm-158-4.2a6 6 0 001.9-4.4 6 6 0 00-1.8-4.3 6 6 0 00-4.4-1.8 6 6 0 00-4.4 1.8 6 6 0 00-1.8 4.3 6 6 0 001.8 4.4 6 6 0 004.4 1.8 6 6 0 004.4-1.8zm137.1 0a6 6 0 001.8-4.4 6 6 0 00-1.8-4.3 6 6 0 00-4.4-1.8 6 6 0 00-4.4 1.8 6 6 0 00-1.7 4.3 6 6 0 001.7 4.4 6 6 0 004.4 1.8 6 6 0 004.4-1.8zm-335.7-2.3l-3.2-7-3.2 7h6.4zm-65.2-2.5c.6-.5.9-1.3.9-2.5 0-1-.3-1.8-1-2.2-.6-.4-1.7-.7-3.2-.7h-3.8v6.1h3.7c1.7 0 2.8-.2 3.4-.7z" fill="#989AA4"></path><path class="logotype--arc" fill-rule="evenodd" clip-rule="evenodd" d="M346.8 97.6l-8.6-14c8.4-3.5 15-10 18.7-18.3l14 8.4a51.8 51.8 0 01-24.1 23.9z" fill="#DF4D62"></path><path class="logotype--name" d="M230.9 102.6V.5h16.7v102.1h-16.7zM530 102.6V.6h16.7v102H530z" fill="#fff"></path><path class="logotype--name" fill-rule="evenodd" clip-rule="evenodd" d="M15.2 87.7a50.6 50.6 0 010-72.2 52.3 52.3 0 0178.4 6l-15.5 6.4-1.1-1.2a36 36 0 00-50.4 0 34.8 34.8 0 000 49.7 36 36 0 0052.2-2l15.5 6.4a52.3 52.3 0 01-79.1 6.9z" fill="#fff"></path><path class="logotype--name" d="M400.4 102.6V31.5l12.3 16.2 4 5.3v49.6h-16.3zm78.2 0L401.2.5H422L477.8 74c.4.6 1.2.3 1.2-.4V.5h16.3v102.1h-16.7zM577.4 90.4l-4.2-3.4 10-11.7 7.2 5.4c8 5 16 7.5 24.5 7.5 5.6 0 10-1.2 13.4-3.6 3.4-2.5 5.2-5.8 5.2-9.8 0-4-1.7-7.3-4.9-9.5a48.7 48.7 0 00-15.9-6c-7.4-1.7-13-3.3-16.9-4.8a37.7 37.7 0 01-10-5.7c-5.9-4.3-8.8-11-8.8-20 0-9.1 3.3-16 10-21C593.5 3 601.8.6 611.7.6c6.4 0 12.8 1 19.1 3.1l8.8 3.8 7 4.6-8.4 11.7-4.8-3.3a48 48 0 00-22.3-5.6c-5 0-9.3 1-12.6 3.1-3.4 2.1-5 5.4-5 9.6 0 4.2 1.6 7.5 5 9.8a73.2 73.2 0 0020.5 7c10.4 2.5 18 6 23.2 10.3C647.4 59 650 65.3 650 74c0 8.5-3.2 15.4-9.8 20.7-6.5 5.4-15 8-25.8 8-13.7 0-26-4-37-12.2z" fill="#fff"></path><path class="logotype--name" fill-rule="evenodd" clip-rule="evenodd" d="M118.7 102.6V.5h45.7c7.5 0 15 2.3 21.4 7.2a34.4 34.4 0 01-10 60.4l-.7.2 24 34.3H179L144.8 54h19.6a19 19 0 0015-7.3 18.5 18.5 0 00-3.5-26.2 18.9 18.9 0 00-11.5-3.8h-29v86h-16.7z" fill="#fff"></path><path class="logotype--name" d="M324.3 102.6a51.5 51.5 0 01-51.8-51c0-28.2 23.2-51.1 51.8-51.1a51.5 51.5 0 0149.8 65.3l-15-8.3a35.2 35.2 0 00-34.9-40.8A35.2 35.2 0 00289 51.6 35.2 35.2 0 00330.3 86l8.4 14.6c-4.6 1.3-9.4 2-14.4 2z" fill="#fff"></path></svg>