<svg class="icon" fill="none" viewBox="0 0 56 56" xmlns="http://www.w3.org/2000/svg"><path d="m0 0h56v56h-56z" fill="none"></path><path class="icon--fill" d="m6 12v-1.1c-.6 0-1.1.5-1.1 1.1zm0 32h-1.1c0 .6.5 1.1 1.1 1.1zm44 0v1.1c.6 0 1.1-.5 1.1-1.1zm0-32h1.1c0-.6-.5-1.1-1.1-1.1zm-22 13.9a1.1 1.1 0 0 0 0 2.2zm16 2.2a1.1 1.1 0 0 0 0-2.2zm-16 3.3a1.1 1.1 0 0 0 0 2.2zm5 2.2a1.1 1.1 0 0 0 0-2.2zm6-2.2a1.1 1.1 0 0 0 0 2.2zm5 2.2a1.1 1.1 0 0 0 0-2.2zm-16-12.7a1.1 1.1 0 0 0 0 2.2zm16 2.2a1.1 1.1 0 0 0 0-2.2zm-25.4-5.1a1.1 1.1 0 0 0 -2.2 0zm-2.2 20a1.1 1.1 0 0 0 2.2 0zm4.5-13a1.1 1.1 0 0 0 2.2 0zm-6.8 6.5a1.1 1.1 0 1 0 -2.2 0zm-9.2-19.5v32h2.2v-32zm1.1 33.1h44v-2.2h-44zm45.1-1.1v-32h-2.2v32zm-1.1-33.1h-44v2.2h44zm-22 17.2h16v-2.2h-16zm0 5.5h5v-2.2h-5zm11 0h5v-2.2h-5zm-11-10.5h16v-2.2h-16zm-11.5 6h1v-2.2h-1zm1 0h.6v-2.2h-.6zm.6-9.6h-.6v2.2h.6zm-.6 0h-.6v2.2h.6zm1.1 8.5v-7.4h-2.2v7.4zm-2.2-10v2.6h2.2v-2.6zm2.1 16.3h-1v2.2h1zm-1 0h-1v2.2h1zm-1.1-6.3v7.4h2.2v-7.4zm2.2 10v-2.6h-2.2v2.6zm2.3-13.5v.5h2.2v-.5zm-6.8 7.5v-.4h-2.2v.4zm-2.2 0c0 2.5 2 4.6 4.6 4.6v-2.2c-1.3 0-2.4-1-2.4-2.4zm11.2 0a5 5 0 0 0 -5-5v2.2c1.5 0 2.8 1.3 2.8 2.8zm-11.2-7.4c0 2.6 2 4.6 4.6 4.6v-2.2c-1.3 0-2.4-1-2.4-2.4zm9 7.4c0 1.3-1 2.4-2.4 2.4v2.2c2.6 0 4.6-2 4.6-4.6zm-6.8-7.4c0-1.5 1.3-2.8 2.8-2.8v-2.2a5 5 0 0 0 -5 5zm9 0a5 5 0 0 0 -5-5v2.2c1.5 0 2.8 1.3 2.8 2.8z" fill="#000"></path></svg>