<svg class="icon" fill="none" viewBox="0 0 60 56" xmlns="http://www.w3.org/2000/svg"><path d="m2 0h56v56h-56z" fill="none"></path><path class="icon--stroke" d="m30 29c5 0 9.1-4.2 9.1-9.5 0-5.2-4-9.4-9.1-9.4-5 0-9.1 4.2-9.1 9.4 0 5.3 4 9.5 9.1 9.5zm0 0c-9 0-16.3 7.6-16.3 17h32.6c0-9.4-7.3-17-16.3-17zm18 2.6c3 0 5.6-2.7 5.6-6s-2.5-6-5.6-6-5.6 2.7-5.6 6 2.5 6 5.6 6zm0 0c5.5 0 10 4.8 10 10.7h-11.7m1.7-10.7c-2.4 0-4.6.9-6.3 2.4m-29.7-2.4c-3 0-5.6-2.7-5.6-6s2.5-6 5.6-6 5.6 2.7 5.6 6-2.5 6-5.6 6zm0 0c-5.5 0-10 4.8-10 10.7h11.7m-1.7-10.7c2.4 0 4.6.9 6.3 2.4" stroke="#000" stroke-linecap="round" stroke-linejoin="round" stroke-width="2.2"></path></svg>