<svg class="icon" fill="none" xmlns="http://www.w3.org/2000/svg" viewBox="0 0 56 56"><path fill="none" d="M0 0h56v56H0z"></path><mask id="a" fill="#fff"><path fill-rule="evenodd" clip-rule="evenodd" d="M14.5 23a1.5 1.5 0 100-3 1.5 1.5 0 000 3zm0 9a1.5 1.5 0 100-3 1.5 1.5 0 000 3zm1.5 7.5a1.5 1.5 0 11-3 0 1.5 1.5 0 013 0zM23.5 23a1.5 1.5 0 100-3 1.5 1.5 0 000 3zm1.5 7.5a1.5 1.5 0 11-3 0 1.5 1.5 0 013 0zM23.5 41a1.5 1.5 0 100-3 1.5 1.5 0 000 3zM34 21.5a1.5 1.5 0 11-3 0 1.5 1.5 0 013 0zm7.5 1.5a1.5 1.5 0 100-3 1.5 1.5 0 000 3z"></path></mask><path class="icon--fill" fill-rule="evenodd" clip-rule="evenodd" d="M14.5 23a1.5 1.5 0 100-3 1.5 1.5 0 000 3zm0 9a1.5 1.5 0 100-3 1.5 1.5 0 000 3zm1.5 7.5a1.5 1.5 0 11-3 0 1.5 1.5 0 013 0zM23.5 23a1.5 1.5 0 100-3 1.5 1.5 0 000 3zm1.5 7.5a1.5 1.5 0 11-3 0 1.5 1.5 0 013 0zM23.5 41a1.5 1.5 0 100-3 1.5 1.5 0 000 3zM34 21.5a1.5 1.5 0 11-3 0 1.5 1.5 0 013 0zm7.5 1.5a1.5 1.5 0 100-3 1.5 1.5 0 000 3z" fill="#000"></path><path class="icon--fill" d="M13.8 21.5c0-.4.3-.7.7-.7v4.4c2 0 3.7-1.7 3.7-3.7h-4.4zm.7.7a.7.7 0 01-.7-.7h4.4c0-2-1.7-3.7-3.7-3.7v4.4zm.7-.7c0 .4-.3.7-.7.7v-4.4c-2 0-3.7 1.7-3.7 3.7h4.4zm-.7-.7c.4 0 .7.3.7.7h-4.4c0 2 1.7 3.7 3.7 3.7v-4.4zm-.7 9.7c0-.4.3-.7.7-.7v4.4c2 0 3.7-1.7 3.7-3.7h-4.4zm.7.7a.7.7 0 01-.7-.7h4.4c0-2-1.7-3.7-3.7-3.7v4.4zm.7-.7c0 .4-.3.7-.7.7v-4.4c-2 0-3.7 1.7-3.7 3.7h4.4zm-.7-.7c.4 0 .7.3.7.7h-4.4c0 2 1.7 3.7 3.7 3.7v-4.4zm0 13.4c2 0 3.7-1.7 3.7-3.7h-4.4c0-.4.3-.7.7-.7v4.4zm-3.7-3.7c0 2 1.7 3.7 3.7 3.7v-4.4c.4 0 .7.3.7.7h-4.4zm3.7-3.7c-2 0-3.7 1.7-3.7 3.7h4.4c0 .4-.3.7-.7.7v-4.4zm3.7 3.7c0-2-1.7-3.7-3.7-3.7v4.4a.7.7 0 01-.7-.7h4.4zm4.6-18c0-.4.3-.7.7-.7v4.4c2 0 3.7-1.7 3.7-3.7h-4.4zm.7.7a.7.7 0 01-.7-.7h4.4c0-2-1.7-3.7-3.7-3.7v4.4zm.7-.7c0 .4-.3.7-.7.7v-4.4c-2 0-3.7 1.7-3.7 3.7h4.4zm-.7-.7c.4 0 .7.3.7.7h-4.4c0 2 1.7 3.7 3.7 3.7v-4.4zm0 13.4c2 0 3.7-1.7 3.7-3.7h-4.4c0-.4.3-.7.7-.7v4.4zm-3.7-3.7c0 2 1.7 3.7 3.7 3.7v-4.4c.4 0 .7.3.7.7h-4.4zm3.7-3.7c-2 0-3.7 1.7-3.7 3.7h4.4c0 .4-.3.7-.7.7v-4.4zm3.7 3.7c0-2-1.7-3.7-3.7-3.7v4.4a.7.7 0 01-.7-.7h4.4zm-4.4 9c0-.4.3-.7.7-.7v4.4c2 0 3.7-1.7 3.7-3.7h-4.4zm.7.7a.7.7 0 01-.7-.7h4.4c0-2-1.7-3.7-3.7-3.7v4.4zm.7-.7c0 .4-.3.7-.7.7v-4.4c-2 0-3.7 1.7-3.7 3.7h4.4zm-.7-.7c.4 0 .7.3.7.7h-4.4c0 2 1.7 3.7 3.7 3.7v-4.4zm9-13.6c2 0 3.7-1.7 3.7-3.7h-4.4c0-.4.3-.7.7-.7v4.4zm-3.7-3.7c0 2 1.7 3.7 3.7 3.7v-4.4c.4 0 .7.3.7.7h-4.4zm3.7-3.7c-2 0-3.7 1.7-3.7 3.7h4.4c0 .4-.3.7-.7.7v-4.4zm3.7 3.7c0-2-1.7-3.7-3.7-3.7v4.4a.7.7 0 01-.7-.7h4.4zm4.6 0c0-.4.3-.7.7-.7v4.4c2 0 3.7-1.7 3.7-3.7h-4.4zm.7.7a.7.7 0 01-.7-.7h4.4c0-2-1.7-3.7-3.7-3.7v4.4zm.7-.7c0 .4-.3.7-.7.7v-4.4c-2 0-3.7 1.7-3.7 3.7h4.4zm-.7-.7c.4 0 .7.3.7.7h-4.4c0 2 1.7 3.7 3.7 3.7v-4.4z" fill="#000" mask="url(#a)"></path><path class="icon--stroke" d="M28 9.5V6m0 3.5v3.4m0-3.4h11m-11 0H17m22 0h11V28M39 9.5V6m0 3.5v3.4M17 9.5H6V50h22M17 9.5V6m0 3.5v3.4M40 34v6h6m4 0a10 10 0 11-20 0 10 10 0 0120 0z" stroke="#000" stroke-width="2.2" stroke-linecap="round" stroke-linejoin="round"></path></svg>