<svg class="client-logo" fill="none" viewBox="0 0 175 75" xmlns="http://www.w3.org/2000/svg"><path d="m0 0h175v75h-175z" fill="none"></path><g class="fill" fill="#5a5a5a"><path clip-rule="evenodd" d="m32.5 59.2-12-16.9-.4-.6a17 17 0 0 1 -2.2-4.3l2.3.9 15.1 6.2 7.5 3.3-8 11.4a1.4 1.4 0 0 1 -2.3 0zm11.5-13.1-8.2-2.8-5.2-2c.2-.1.3-.4.5-.7l10.1 3.5 3.4 1.2zm1.6-2.2-4-1.1-3-1 .4-.7h2.1c.5 0 .5-.4.4-.9-.3 0-.3-.2-.2-.6 1-.1 1.7-.5 2.4-1 2-2.1.3-5.9-3.4-10.5a14 14 0 0 0 -15.2-3.2l-7.8 3.7a16.7 16.7 0 1 1 29.8 13.1l-.6.8-1 1.4zm-8.6-2.5-1.6-.5 1.5.2zm-7.8-.5-4.2-1.6v-.4h.6l.1-.1 3.2 1c.1.5.2.8.4 1zm-5.7-2.1-3-1.2-.8-.3.2-.4 3.5 1.2zm-4.5-1.8-1.3-.5-.1-.4 1.3.4v.5zm-2-5 .1-1.4 3.4-1.1v2.2l-3.4.5v-.2zm25-.3-4.5-.2c-1 0-1.3-.1-2-.5l-5.8-4.6c-.2-.5 1.3-2.2 4.6-1.7 3.3 1 6 3.5 7.8 6.5.2.3.2.5-.1.5zm-20.6-.2v-2.4l5-1.8c.7-.2 1.2-.4 1.2.3v3l-6.2 1z" fill-rule="evenodd"></path><path d="m57.2 36.9 1.6-14.7h4.2l-1.5 14.8h-4.3zm5.8 0 1.5-14.7h5.3l3 7.2.3.8.8 2.5.2 1-.1-1a56.8 56.8 0 0 1 -.1-2.6v-1l.6-6.9h4l-1.5 14.8h-5.2l-3-7.1a12.1 12.1 0 0 1 -.8-2.1l-.5-2.5a20.3 20.3 0 0 1 .1 4.8l-.5 6.9h-4.1zm15.7-11.5.3-3.2h11.4l-.4 3.2h-3.5l-1.2 11.6h-4.3l1.2-11.5h-3.5zm10.6 11.5 1.5-14.7h10.2l-.4 3.2h-5.9l-.2 2.4h5l-.3 3.2h-5l-.4 2.8h6.5l-.3 3h-10.7zm11.6 0 1.5-14.7h6.7c1.6 0 2.8.3 3.6 1a3 3 0 0 1 1.2 2.5v.6c0 .2 0 .4-.2.6-.1.7-.4 1.2-.8 1.7-.5.4-1 .8-1.6 1l-.3.2c.2 0 .4.3.6.5s.4.6.6 1.3l.2.5 1.5 4.8h-4.4l-1.5-4.5c-.2-.7-.6-1-1.3-1h-1l-.6 5.5h-4.1zm6.7-8.7c.5 0 .8 0 1-.2.3-.1.5-.3.7-.6l.2-.7c0-.6-.3-1-.8-1.1a2.6 2.6 0 0 0 -.9-.2h-1.5l-.3 2.8zm6.7 8.7 1.6-14.7h6.7c1.5 0 2.7.3 3.5 1a3 3 0 0 1 1.2 2.5v.6l-.1.6c-.2.7-.5 1.2-1 1.7-.3.4-.9.8-1.5 1l-.3.2c.2 0 .5.3.6.5.2.2.4.6.6 1.3l.2.5 1.6 4.8h-4.4l-1.5-4.5c-.3-.7-.7-1-1.4-1h-1l-.5 5.5zm6.7-8.7c.5 0 .9 0 1-.2.3-.1.5-.3.7-.6.2-.2.3-.5.3-.7 0-.6-.3-1-1-1.1a2.7 2.7 0 0 0 -.8-.2h-1.5l-.3 2.8z"></path><path d="m126.4 36.9 7.2-14.7h4.7l4.2 14.7h-4.5l-.7-3h-5.3l-1.3 3zm10.2-6-.9-3.8a2.8 2.8 0 0 1 0-1v-.6-.5l-.2.4a11.5 11.5 0 0 1 -.4 1.7l-1.7 3.8zm6 6 1.6-14.7h4.2l-1.4 14.8h-4.3zm5.7 0 1.6-14.7h4.2l-1.1 11.4h5.2l-.4 3.3zm-91.1 19.4 1.6-14.7h6.5a6 6 0 0 1 3.4 1.3c.8.7 1.3 1.6 1.3 2.8l-.3 1.7c-.3 1.2-.9 2-1.7 2.7-1 .7-2.1 1.1-3.6 1.1h-2.4l-.5 5h-4.3zm6.5-8.2c.9-.1 1.4-.4 1.7-1 .2-.4.2-.7.2-1a1.3 1.3 0 0 0 -1.2-1.3h-1.7l-.3 3.3zm6 8.2 1.6-14.7h4.2l-1.2 11.4h5.2l-.3 3.3z"></path><path d="m77.7 56.3 7.3-14.7h4.7l4.2 14.7h-4.5l-.7-3h-5.2l-1.4 3h-4.3zm10.2-6-.9-3.8a3.2 3.2 0 0 1 0-1v-.7-.5l-.1.5a12.8 12.8 0 0 1 -.5 1.7l-1.6 3.7h3.1zm6.1 6 1.5-14.7h5.3l3 7.2.3.7.8 2.6.2 1-.1-1v-1.3l-.1-1.3v-1l.6-6.9h4l-1.5 14.7h-5.2l-3-7.1a32.5 32.5 0 0 1 -.8-2.2l-.6-2.5a22 22 0 0 1 .1 4.8l-.5 6.9h-4zm15.5 0 1.5-14.7h5.3l3 7.2.3.7.8 2.6.2 1v-1a49.2 49.2 0 0 1 -.2-2.6v-1l.6-6.9h4.1l-1.5 14.7h-5.2l-3.1-7.1-.3-.9-.4-1.2-.6-2.5a21 21 0 0 1 .2 3.9v1l-.6 6.8zm15.5 0 1.6-14.7h10.1l-.3 3.2h-6l-.2 2.4h5l-.3 3.2h-5l-.3 2.7h6.5l-.3 3.2zm11.6 0 1.6-14.7h6.7c1.5 0 2.7.3 3.5 1a3 3 0 0 1 1.3 2.5v.6l-.2.6c-.2.7-.5 1.2-.9 1.7-.4.4-1 .8-1.6 1l-.3.1.7.6.5 1.3.2.5 1.6 4.8h-4.4l-1.5-4.5c-.2-.7-.7-1-1.4-1h-1l-.5 5.5zm6.8-8.7c.4 0 .8 0 1-.2.3-.1.5-.3.6-.6.2-.3.3-.5.3-.8 0-.5-.3-1-.9-1l-.5-.2h-1.9l-.3 2.8z"></path></g></svg>