<svg class="client-logo" fill="none" viewBox="0 0 175 75" xmlns="http://www.w3.org/2000/svg"><path d="m0 0h175v75h-175z" fill="none"></path><g class="fill" fill="#5a5a5a"><path clip-rule="evenodd" d="m136.8 28.7c.2-1.6.2-3.1 0-4.7l-.2-.6-.3-.6v-1.9l-.1-2.1c0-.3-.2-.5-.4-.8l-.2-.5a6 6 0 0 1 -.2-.7l-.4-1.1c-.2-.3-.4-.5-.7-.6l-.4-.4c-.8-.8-.9-.8-1.3-.8l-1-.1-.3-.2a49.6 49.6 0 0 0 -2-.7h-1l-1.6-.4c-.3-.1-.4-.3-.6-.5l-.4-.4-1.8-.8h-.5a1 1 0 0 1 -.5-.1l-.2-.2-.4-.2h-1.3c-.4 0-.7 0-.5.3.3.5.6.7 1 1l.6.6.6.5h.1l.2.2c.3.2.5.4.7.8.2.6 0 1.3 0 2v.3l-.1.2-.1.3a13.1 13.1 0 0 0 0 2.3l-.1.2-.3.3v2.9a1126.4 1126.4 0 0 1 0 .8v1.5a49.7 49.7 0 0 0 .2 3.5v2.4l.2.2v.2l.1 1.6v1.6l.3.3.2.3v1l.1 1.5c0 .3.3.6.5 1l.2.3v.1l.2.3.5 1.2-.1 1.4-.2 1-.1 1.7c-.2.8-.3 1.5-.3 2.3 0 .4.3.8.5 1.2l.2.4.2.4c0 .2 0 .5.2.7l.2.2.2.3-.5.5-.5.2c-.3 0-.6.1-.6.3s0 .4.2.6l.2.4c0 .3.2.8.1 1.3 0 .2 0 .4-.2.6v.3a2 2 0 0 1 -.7 1l-.2.2c-.1.1-.3.2-.2.5 0 .2.2.2.4.2a2.9 2.9 0 0 1 .3 0l1.4-.2h.1c.2 0 .2-.1.2-.2l.2-.2h1l.2.2a.7.7 0 0 0 .1.1h.5l.2-.1.1-.2.8-.2h.6l.2-.1h.2l1.5-.6c.7-.4 1.3-1.1 1.6-1.8.4-1 .5-2.2.5-3.1v-.3l.2-.3.2-.3v-1.4-1.7l.3-.5.2-.5v-2.3a45.5 45.5 0 0 1 0-6l.3-1.6.3-.3c.2 0 .3-.2.3-.3.3-.4.5-.8.5-1.2v-1.2-1.5l.2-.6.3-.6zm-4 1c-.2.5-.4.9-.4 1.3 0 .7-.2 1-.4 1.2l-.4.7-.1.9v6.6a7 7 0 0 1 -.9 3.2 3 3 0 0 0 -.5 1.6c0 .8-.1 1.2-.5 2l-.2.5-.3.7c-.3.6-.5.7-.6.7-.2-.1-.3-.4-.3-1v-7.6l.2-8.2v-.1c0-.5 0-.6-.4-1 0-.8-.2-1.2-.4-1.9l-.1-.2c-.3-.6-.3-1-.3-1.7v-.2-4.4-1.3c0-.9 0-.9.6-.8h.8c.5 0 .7 0 1.3.2.6.4.7.6 1 1.2h.1l.6.6c.8.8 1.2 1.9 1.5 2.9v.5c.1 1.2.2 2.7-.3 3.6zm-79.3 10.4a125.1 125.1 0 0 1 0-2v-2.5l-.5-.4-.5-.5.1-2.2c0-.8.2-1.6 0-2.3 0-.3-.3-.4-.6-.6-.2-.2-.5-.3-.6-.6v-.8c.2-.4.3-.7.1-1s-.6-.3-1-.3c-.5 0-1-.1-.9-.4.1-.5.5-.8.8-1.2l.4-.5 1.8-2.9a5 5 0 0 0 .6-2.3c0-.6 0-1.5-.2-2.4v-1.2c-.1-1-.6-1.7-1.3-2.5l-1.1-.4-.8-.2-.4-.6c-.2-.2-.3-.5-.6-.5-2.2-.2-4.5 0-6.8 0l-1.9.1-.5.2-.4.1h-1l-1.5.1c-.3.2-.6 1-.4 1.5.3.7.8 1.1 1.4 1.5l.8.7h.6c.2.4.1.7 0 1 0 .2-.1.2-.2.3-.2 0-.3.1-.3.3v8.4c0 .7 0 .7.2.7 0 0 .2 0 .3.3.2.4.1.8 0 1.2a28.4 28.4 0 0 1 -.1.3v.2c-.2.5-.3.7-.2 1.6v.5c0 .7 0 1.6.2 1.9v1c0 .6 0 .8-.2 1l-.1.2v1.1c0 2.3-.2 6.8 0 8.4.3 1.3.2 5.3-.1 8.2l-.3 1.1c0 .4 0 .7-.2.8-.2.3-.5.4-.8.6h-.3l-.5.2c-.2.2-.1.6.7.8h4.8c.1 0 .1.1.2 0 .2 0 .3-.2.6-.5h.6l.2.3c0 .2.1.3.3.3.3 0 .4 0 .5-.2l.4-.2.7-.1c.3 0 .7 0 .9-.2.2 0 .4-.3.7-.6l1.1-1c.7-.4 1.7-1 2.5-1.3.3-.3.4-1 .5-1.7l.2-1.2.7-1.4c.4-.5.7-1 .8-1.7.2-.6.1-1.2 0-1.8v-1.6c0-.2.2-.3.3-.5.2-.2.3-.3.3-.5v-2.2zm-9-23.2c0-.4.4-.5.7-.5h.7c.5 0 1 0 1.1.2.2.3.2.6 1 .5s.6.5.2.8c-.3.4-.1.6 0 .9.3.2.3.8 0 1v1.3l.2.6c.1.8-.2.9-.2.9l-1 .2c-.4 0-.8.8-1.1 1.4-.3.4-.3.6-.5.7h-.9v-4.9-1.2-2zm4 24.7v1.9l-.2.3-.5 2.2v1.3l-.1.6c0 .9-.2 1-.7 1.5l-.2.2-1.1 1-.9.8-.9.2-.9.3.7-1.3v-.1-2.9l-.2-1.7.6-.9v-4.6-1-1.1c-.6-.5-.5-.6-.2-1l.4-.3v-1l.1-.9v-.1l-.2-1.5.1-.2.2-.7v-1.2l.1-1.2c0-.8 0-1 .2-1l.4.4a12 12 0 0 0 1.1 1.1l.5.5.5.4c.5.4.8.6.6 1.4-.1.5 0 .9.1 1.2s.3.6.2 1.2l-.2.6-.2 1c0 .4.2.7.5 1l.1.2c.2.2.2.2 0 .5l-.1.5-.3 1 .1.7.3.8z" fill-rule="evenodd"></path><path d="m63 49.4c-.5.4-.7-.5-.7-.5 0-.8 1.5-1.7 1.5-1.7l.2-.3.2-.5.1-3.4v-1.1l.2-.3c.3-.4.3-.4-.2-.9l.1-1.7.3-.9-.2-6.1v-2.6-2.6-2.6-2.6l-.1-3.9-.1-3.2c-.2-.5-.7-.7-1.3-.8-.4 0-.7-.2-1-.4h-.2v-.1c-.4-.3-.5-.8.3-1h.3l.3-.1a76 76 0 0 0 1.7 0 24.6 24.6 0 0 0 2.7.1h1.6s1 0 .5 1c0 .3-.3.6-.8.6s-1 1.2-1 1.2v.8c.3.3.6.5.6.7s-.2.4-.4.6l-.3.4.1 6a1008.5 1008.5 0 0 0 .3 5.7c0 .4.1.6 0 .8 0 .2 0 .4-.6.6v2.3l.1 1 .2 1v1.3l-.3.4-.3.4v.8a15.2 15.2 0 0 0 .3.3v2l.4.7v2.6l-.6.9v.6l.2 1 1.2.7 1.1.7c.5.3.6 1.4 0 1.5l-1-.2h-.2c-.2.2-.3.2-.7 0-.4-.3-1.6-.2-2.5-.1h-.7c-.3 0-.5.3-.8.5a3 3 0 0 1 -.4.4zm-24 11.4h-2.8v4h2.8v-.8h-1.7v-.9h1.6v-.7h-1.6v-.8h1.7zm95.9 0h-3v.8h1v3.2h1v-3.2h1zm-10.5 0h-1.4v4h1v-2.1a5.4 5.4 0 0 0 -.2-1.2v.3a3 3 0 0 0 .3.5l1.2 2.5h1.3v-4h-1v2.7l.1.5v-.3l-.1-.1-.2-.4-1.1-2.4zm-6.2 0h-2.7v4h2.8v-.8h-1.7v-.9h1.5v-.7h-1.5v-.8h1.6zm-10.6 0h-1.5v4h.9v-2.8-.1-.6.4l.1.3.8 2.8h1l.8-2.8v-.3-.2l.1-.2v3.5h.9v-4h-1.5l-.7 2.4v.7a4.2 4.2 0 0 0 -.1-.3v-.4zm-8.6 0h-1.3v4h1v-2.1a7.6 7.6 0 0 0 -.2-1.2 8.4 8.4 0 0 0 .3.8l1.2 2.5h1.3v-4h-1v2.3a4.9 4.9 0 0 0 .1 1v-.2-.2h-.1v-.1l-.2-.4zm-6.3 0h-1v4h1z"></path><path clip-rule="evenodd" d="m85.7 60.8h-1.2l-1.5 4h1l.3-.9h1.5l.3.9h1zm-1.1 2.4.5-1.5.5 1.5z" fill-rule="evenodd"></path><path d="m79 60.8h-3v.8h.9v3.2h1v-3.2h1v-.8z"></path><path clip-rule="evenodd" d="m70 60.8h-1.6v4h1v-1.6h.1l.5.1.2.4.3 1h1.1l-.4-1.2c-.2-.4-.3-.6-.5-.7.2 0 .4-.1.5-.3.2-.2.2-.4.2-.6 0-.4 0-.6-.3-.8a2 2 0 0 0 -1.2-.3zm-.6 1.7v-1h.2c.3 0 .5 0 .6.2.2 0 .2.2.2.3 0 .2 0 .3-.2.4l-.5.1z" fill-rule="evenodd"></path><path d="m63.3 60.8h-2.7v4h2.8v-.8h-1.7v-.9h1.5v-.7h-1.5v-.8h1.6zm-7.5 0h-3v.8h1v3.2h1v-3.2h1zm-10.5 0h-1.3v4h1v-2.1l-.1-.5-.1-.7a6.4 6.4 0 0 0 .3.8l1.2 2.5h1.2v-4h-.9v2.3a5.8 5.8 0 0 0 .1 1v-.2a43 43 0 0 0 -.3-.7zm25.6-13.7c.1 0 .2 0 .2-.2l.1-1.2v-1.2l.3-.2.2-.1c.1-.3.2-.6 0-.8 0-.2-.2-.2-.3-.2s-.3 0-.3-.2a.8.8 0 0 1 -.3-.7l.3-.3c.2 0 .3-.1.3-.2l-.1-.4v-.1h-.1c0-.2-.1-.2-.2-.3l-.2-.4c0-.8.2-1.5.3-2.2l.1-.6a69.5 69.5 0 0 1 .4-2c.1-.4.2-1 .4-1.3l.6-.9.5-.7.3-.9.2-.4c.1-.4.3-.9.6-1.2l.3-.2.4-.3v-.9-.6a8.4 8.4 0 0 1 1.3-3.4l.6-.6.5-.5c.4-.5 1-1.2 1.1-1.8v-1-1l.8-1c.1 0 .2 0 .3-.2a14 14 0 0 0 1.4-2c.2-.4.1-1 0-1.7v-.2l-.1-.4h-3.8c-.5.1-.8.4-1.1.7l-.1.1-1 1.3v1h-.5c-.1 0-.3-.1-.4 0-.2.1-.4.5-.5.8v3.2l-.2.2-.2.1v.4c0 .2.1.4 0 .4h-.6-.1c-.2 0-.2-.2-.1-.5v-.5l-.2-.3-.2-.4-.3-1.9.1-.3.1-.4c.1-.6 0-1.3-.1-1.9l-.3-.1c-.1 0-.3 0-.3-.2v-1.6-1.7c0-.3.1-.6.3-.8.1-.2.3-.2.6-.2h10.4v2.2l.2.2a61 61 0 0 1 .2 6.3v.8l-.2.2-.2.3v1.7l-.6 1-.4.6-.3.9-.2.8-.3.4-.4.7v1l-.1 1.1c-.1.2-.3.2-.4.2h-.4c-.4.3-.9.7-1 1.1v1.9l-.3.1c-.1 0-.3 0-.3.2a33.5 33.5 0 0 0 -2.3 5.5l-.4 1.1-.8 2.2-1 3.3c-.1.2.1.6.4.5l1-.5.7-.5.8-.3a3 3 0 0 0 1.2-.5c.4-.3.5-.6.7-1 0-.2.2-.5.5-.8.2-.3.6-.5 1-.7l1-.7v-.5c0-.2 0-.4.2-.6h1.3c.1 0 .1-.1 0-.2v-.1-.4h.2c.1 0 .2.1.2 0l.1-.4.1-.6c.2 0 .9 0 1 .2.2.6.2 1.4.2 2l-.2.2-.1.1c0 .3-.2.5-.3.7-.2.2-.4.4-.4.7v5.4h-.5l-.5.1c-.1.1-.1.3 0 .4 0 .1 0 .2-.2.3h-4.5v-.3-.3c-.4-.1-.8 0-1 .1s-.3.3-.3.4c0 .2 0 .3-.2.4h-1l-.3-.4c0-.2-.2-.4-.4-.4h-2.8c-.2 0-.3-.3-.3-.6v-.2zm13.2 3.9a7 7 0 0 0 0 2.2c.3.5 1.1.3 1.6.2l.5-.2.5-.3h1.6l1.7-.1c.3 0 .5-.2.6-.4l.6-.4c.5 0 1.3 0 1.8.2l.1.2.1.2h5.3c.2-.1.4-.4.4-.6.2-1.3.1-2.6 0-3.9l-.1-.3-.2-.3v-1h.5v-.6-.2l-.1-.2c0-.2-.1-.4-.3-.5h-2l-.2-.2-.2-.2c-.2 0-.3.2-.4.4l-.2.4-1.4.7-.5.3-1.1.5c-.7.3-1.3.5-2 1v.6c0 .2 0 .4-.2.5-.7.4-1.8.2-2.5.2-.3-.4 0-.9.2-1.3l.4-1c0-.3.3-.7.5-1l.6-1.5.1-1.5v-1.4l.5-1 .4-1v-2.3-2.5c.1-.3.4-.5.6-.7l.6-.6v-.8-.6l.2-.4c.2-.1.3-.2.3-.4l.4-1.2.2-.9.2-.4.2-.4v-2-2.2c0-.3.2-.6.3-.8l.3-.6.2-1.3c0-.5 0-1 .2-1.5 0-.2.2-.2.4-.2.1 0 .3 0 .3-.2.1-.3 0-.6 0-.8v-.9l.6-.4.5-.4.1-1 .1-1 .4-.4.3-.5.2-.3c.3-.6.6-1.1.6-1.7 0-.4-.5-.5-.9-.5h-11.6-.2c-.5 0-.7 0-.7.6v2.5c.1 1.3.2 2.6 0 3.9l-.2.1s-.2 0-.2.2v2.5c.1.3.4.3.6.3l.4-.2.6-.4c.3 0 .6-.2.7-.5.2-.5.3-1.1.3-1.7s0-1 .2-1.6l.2-.4c0-.5.2-1 .7-1.3.4-.3 1-.3 1.6-.3.2 0 .2.2.3.4l.3.3h.9c.4-.1.8-.2 1 0l-.1.7c0 .4 0 .9-.2 1.3l-.6 1-.5.7c-.6 1-1 1.8-1.3 2.9v1l-.1 1-.5.8c-.3.2-.5.4-.6.7v.8c0 .3.1.5 0 .8l-.3.3c-.1.1-.3.2-.3.4s0 .3.2.5l.2.3v.8l-.4.6a2 2 0 0 0 -.4.7v.2c-.6 1.2-1.3 3-1.5 4.3a20 20 0 0 0 .1 5.2l.3.6.2.6c.2.8.1 1.5 0 2.3v.2l-.2.2v2h-.3-.2v1.4c0 .2-.2.3-.4.3l-.3.2c-.2.2-.2.5-.1.7h.1l.2.1c0 .3 0 .6-.2.8h-.3c-.1 0-.2 0-.2.2v.5z"></path><path d="m56.6 56.1c-.5.2-1.1.2-1.7.1h-1.7c-.3 0-.7-.5-.5-.7.3-.5.7-.7 1.2-1 .5-.2 1-.5 1.3-1 .2-.2.1-.6.1-1v-.8l.3-.2.2-.1v-.5c0-.1-.2-.1-.2 0-.1 0-.2 0-.3-.5v-2.4c0-.3.2-.3.3-.4l.2-.2v-.6-.7l.2-.2.3-.1v-.6c-.1-.2-.3-.3-.5-.3-.2-.2-.4-.3-.4-.5l-.1-1.8a31.5 31.5 0 0 0 0-1.4v-1.5l.2-.2.2-.1c.1-.3.1-.5 0-.8v-.1-.5-.5-.3-.5l.3-.2.3-.1v-2.1-2l.1-.2c.1 0 .2 0 .3-.2v-1c-.1-.2-.2-.2-.3-.2l-.2-.2v-2.9-2.9h-.2c-.1-.1-.3-.2-.3-.7a27.1 27.1 0 0 0 0-2.2c0-.2.2-.4.4-.5.3-.1.5-.2.5-.5v-.6-1.6l-.3-.2-.2-.2v-.6l.3-.4.2-.3c.2-.5.1-1 0-1.5 0-.1 0-.2-.2-.3l-.2-.2v-.3l-.2-.4-.4-.2h-.3a5 5 0 0 1 -.6-.6l-.4-.5-.3-.3-.7-.7c-.1-.2 0-.7.3-1h.7l.2.3c0 .1 0 .3.2.3h1.2c.5-.1 1-.2 1.4-.1.2 0 .3.2.4.4l.4.3h.8l.6.6c0 .2.2.3.3.4l.2.2.5.7c.2.5.1 1 .1 1.4v2.1h-.2l-.2.2c0 .3 0 .7.2 1h.2l.3.2a3 3 0 0 1 0 1.7l-.2.2-.2.1c-.2 2.6-.2 5.2 0 7.7 0 .2.3.4.5.5.1.2.3.3.3.6.2 1.8.1 3.8 0 5.7v1.6c0 .3-.2.8-.4 1v2.3l.3.3.2.4v1l.1.6c0 .2-.2.4-.4.5l-.3.3c-.2.2-.2.5-.1.7l.1.2.2.1v.9l-.3.1c-.1 0-.2 0-.2.2v.8l.1.8-.2.2-.2.1v2.5l-.3.3-.3.4.3.1.2.1v.8c1 .3 2 .2 3 0l.5-.4c.2-.2.4-.5.6-.5.4 0 .7.1 1 .3l.7.2c.8.1 1.7.2 2.5 0l.5-.4c.2-.2.4-.3.7-.3 1.4-.2 2.8-.2 4.3-.2h7.7c.5.1.4 1.1.3 2.2-.1.9-.2 1.8 0 2.4 0 .3 0 .4.2.6l.2.3c.3.5.4.8-.3.8a51.4 51.4 0 0 0 -4.2 0l-.3-.3-.2-.4h-.5a1 1 0 0 1 -.5 0 3 3 0 0 1 -.6-.2l-.8-.3h-3.9l-.2-.4-.3-.3h-8.7l-.8-.2-.3-.2c-.6-.2-1.6-.2-2.1 0s-.7.6-1 .9c-.2.3-.5.6-1 .8z"></path><path clip-rule="evenodd" d="m108 36.1v2.6a92.8 92.8 0 0 1 -.3 5.8l-.1.2-.3.6a7.5 7.5 0 0 0 -.5 1.7c0 .3 0 .6-.2.8l-.3.3-.3.4v1.7c0 .5-.2.8-.4 1.2a10 10 0 0 0 -.7 1.6v1.3l-.2.3s-.2.1-.2.3v1.7l-.4.3a2.9 2.9 0 0 0 -.1 0c-.2.1-.8.2-.8 0v-1.2-1.3c-.1-.7-.3-1.1-.5-1.7l-.4-1.2v-.8c0-.4 0-.9-.2-1.1-.2-.4-.5-.7-.9-1s-1-.7-.9-1.2c0-.9.5-1.4 1-2l.2-.4c.3-.3.5-1 .7-1.5l.2-.4.3-1.4c0-.7-.2-1-.7-1.4-.9-.7-2.3-1.4-3.5-2l-.5-.3c-.2 0-.4.3-.4.5l.1.3.2.2-.1.8v1c.1.3.4.5.7.6.3.2.6.5.5.8 0 .4-.2.6-.5.8l-.6.1h-1.1a4 4 0 0 0 -1.3 0c-.7 0-1.4.4-2 .8h-.2a8.8 8.8 0 0 0 -.2.2c-.4.2-.9.4-1.3.4-.6 0-.7-1-.6-1.6 0-.4.3-.5.5-.7.3-.1.5-.2.6-.5v-.7c0-.3 0-.6.2-.8 0-.2.3-.3.6-.4.2 0 .5-.2.6-.4v-.4-.4-.7-1-.5-.9c0-.2 0-.3.2-.4l.3-.4v-.8-1l.3-.1c.2 0 .3 0 .3-.2l-.3-.2c-.1 0-.3 0-.3-.2v-2.7l.5-.7.5-.7v-.8-.9c0-.2.2-.3.4-.4l.4-.4v-1.4l.2-1.4a3 3 0 0 1 .7-1.4c.2-.1.3-.2.4-.5v-.5l-.1-.5c0-.3.1-.4.3-.6l.2-.3.2-.6c0-.3.2-.5.3-.7l.3-.6.5-1c.1-.2 0-.5 0-.8v-.8l.7-.6.7-.6v-.8c0-.3-.1-.6 0-.8.2-.4.6-.6 1-.6.3 0 .6.2.7.5l.1.8.1.9.7 1.2c.3.3.6.7.8 1.2v1.6l.2.5c0 .5.2 1 .4 1.5 0 .4.2.7.3 1l.6 1.5.2 1.4.2 1c0 .4.2.7.4 1.1a16.9 16.9 0 0 1 .1.4c0 .2.1.2.2.2l.2.2v.7l-.1.6c0 .3.2.5.4.8.1.2.3.5.3.8v1.5a11.8 11.8 0 0 0 .3 3.1l.1.7.2.7v1.1zm-5.5.5c.2.2 1 .1 1-.1a58.1 58.1 0 0 0 0-6.1l-.2-.1s-.2 0-.2-.2v-1-1h-.3-.2l-.1-.3-.2-.2h-.4l-.4-.1c-.2 0-.3-.3-.4-.4l-.2-.4c0-.2-.2-.4-.3-.5l-.2-.4v-.2c-.1 0-.2.3-.2.7l-.1 1.4-.1.2-.2.2-.2.5v.2l-.4.1-.4.1v1c.1.3.2.6.1.8l-.1.5-.2.5v3.2c0 .1-.1.2 0 .2h1l1.4.1.2.2.2.2c.4.1.6.3.9.6l.3.2z" fill-rule="evenodd"></path><path clip-rule="evenodd" d="m123.2 45.7v-.1c0-.4 0-.9-.3-1.2l-.5-.1c-.2 0-.4 0-.5-.2 0-.2.1-.5.3-.7l.3-.6c-.2-1.2-.4-2.3-.4-3.5 0-1-.1-1-.3-1s-.3-.1-.5-.3c-.3-.4-.4-.7-.4-1.1v-1.9l-.1-2.3c-.1-.5-.4-1.1-.8-1.5 0-.1-.1-.1-.2 0-.1 0-.2 0-.3-.2l.1-.4c0-.1.2-.2 0-.4a5.7 5.7 0 0 0 -1.7-1.5l-.2-.2h-.4c-.1 0-.3.1-.4 0v-.9c1.2-.2 1.9-.7 2.5-1.4a9 9 0 0 0 1.6-3.2v-1-.7l.2-1.2c.2-.6.4-1.2.3-1.8a11 11 0 0 0 -1.9-4.2 5 5 0 0 0 -2-1.7l-1-.1-.8-.1-1-.4c-.4-.2-.8-.4-1.2-.4h-1a3 3 0 0 1 -1 0l-.3-.4-.5-.2-.4.1-.4.2h-5.3c-.3.1-.2.4 0 .6l.7.2h.6a5 5 0 0 1 1.7 1.3l.7 1.2.3.5c.1.2.3 0 .5 0 .2-.2.3-.3.5-.3.4 0 .7 0 1 .3.2.3-.2.6-.5.9a11.4 11.4 0 0 1 -1.9 1.4c-.3.1-.7.3-.8.7-.4.7-.2 1.5 0 2.4l.3.9.3 1.2.2 2.3.1 1.6.2.6.3.6v1.5l.2.4v.3c.3 1 .6 2.2.6 3.2v4.4a90.2 90.2 0 0 0 .3 5.7c.2.1.3.2.3.4 0 .3 0 .7-.2 1l-.1.4-.8 2c-.4.9-.8 1.7-1 2.6-.1.7.3 1 .8 1.3h.1l2 1.5c1 .8 1.8 2.5 2.5 4 .2-.1.2-.8.2-1.6v-1.6l.2-.3.2-.3v-2.6l-.2-.4-.2-.4v-.8l.1-.4.2-.4v-2.7l-.3-.4c-.1-.1-.3-.2-.2-.4 0-.2.1-.2.3-.3l.3-.2c0-.6 0-1-.2-1.6l-.1-.8-.4-3.3-.1-2-.2-.6v-1.3l.2-.7v-.1l.7-1.6c.1-.2.3 0 .4.2a3 3 0 0 0 .2.3c.5.7 1.1 1.4 1.2 2.2v1.5c-.2.5-.3 1-.2 1.4 0 .2.2.2.3.3.1 0 .3 0 .3.2a22.7 22.7 0 0 1 1.6 9c0 .7 0 1.5-.2 2.2a8 8 0 0 1 -.6 1.4l-.6 1.2c-.3 1-.4 1.3.6 1.3.4 0 .9 0 1.2.2.5.2.8.6 1 1 .3.3.6.7 1 .9l.6.4c1.2.6 1.3.2 1.5-.8l.5-2.6a45.8 45.8 0 0 1 .2-2.7v-.6-.6l.1-2.2zm-6.5-22c0 .3-.2.6-.4.9l-.2.3-.1.4c0 .3-.1.7-.3.9-.5.5-1.2 1-1.7 1-1 0-1-.1-1.2-.9v-1.6l.1-1v-1.4a44.1 44.1 0 0 1 0-2.6v-1.2a20 20 0 0 0 0-2c0-.8 0-.8.8-.6.5 0 .8.3 1.2 1l.6.6.6.6c.6.7 1.2 1.5 1.2 2l-.3 2.2c-.3.2-.3.5-.3.9zm21.3-12.4-.7-.2h-.8v2h.6v-.8l.4.8h.7l-.4-.9a.5.5 0 0 0 .4-.5c0-.2 0-.3-.2-.4zm-.9.2h.4v.4h-.4z" fill-rule="evenodd"></path><path clip-rule="evenodd" d="m138 10.5a1.9 1.9 0 0 0 -2 .3 1.9 1.9 0 0 0 -.4 2 1.9 1.9 0 0 0 1.7 1.2c.2 0 .5 0 .7-.2.2 0 .4-.2.6-.4l.4-.5a1.9 1.9 0 0 0 -.4-2zm.6 1.1a1.5 1.5 0 0 1 0 1.1c0 .2-.1.3-.3.5a1.5 1.5 0 0 1 -1.6.3 1.5 1.5 0 0 1 -.7-.8 1.5 1.5 0 0 1 .3-1.6l.4-.3a1.5 1.5 0 0 1 1.2 0l.4.3c.2.2.3.3.3.5z" fill-rule="evenodd"></path></g></svg>