<svg class="client-logo" fill="none" xmlns="http://www.w3.org/2000/svg" viewBox="0 0 175 75"><path fill="none" d="M0 0h175v75H0z"></path><path class="fill" d="M9.5 37.3c0-12.6 14.6-22.8 32.7-22.8S75 24.7 75 37.3c0 12.6-14.7 22.8-32.8 22.8-18 0-32.7-10.2-32.7-22.8zm62 0c0-11.9-13-21.4-29.3-21.4C26 15.9 13 25.4 13 37.2S26 58.6 42.2 58.6c16.2 0 29.3-9.6 29.3-21.4zm-57 0c2.3-5.5 5.4-9.6 9.6-12.3 4.2-2.8 9.2-4.2 14.9-4.2 5.8 0 10.7 1.4 14.9 4.1l-6.6 4c-2.1-2-5-3-8.3-3-3 0-5.5.7-7.5 2.2a18.1 18.1 0 00-4.8 6.4h13l-3.4 5.3h-9.7c1.5 2.9 3.1 5 4.9 6.3a12 12 0 007.5 2.3c3.4 0 6.2-1 8.4-2.9l6.5 3.9a26.4 26.4 0 01-15 4.1c-11.7 0-19.9-5.4-24.3-16.3zm44.6 7.2a9.7 9.7 0 01-3.6-1.2c-1-.6-1.7-1.3-2.1-2.3-.4-1-.6-2-.6-3s.1-1.8.5-2.7c.3-.8.9-1.6 1.6-2.1 1.2-1 2.7-1.6 4.6-1.8 1.9-.1 3.6 0 5 .4 1.8.4 3.1 1.3 4 2.5.7 1 1.1 2.3 1.1 3.7a6.2 6.2 0 01-1.7 4.5 7.5 7.5 0 01-4.2 2c-1.5.3-3 .3-4.6 0zm-18.5 0V30h2.6c.6 0 1.2.2 1.7.4.4.3.7.6.7 1v13h-5zm6.3 0V33.3h2.5c.7 0 1.2.1 1.7.4.5.3.7.6.7 1v9.8h-5zm15.3-2.6c.7-.2 1.3-.5 1.8-1 .6-.7.9-1.6 1-2.9 0-1.1-.3-2-.9-2.6-.5-.6-1-1-1.8-1-.7-.3-1.3-.3-2-.1-.7.1-1.2.3-1.5.5-1 .8-1.4 1.9-1.3 3.3 0 1.5.4 2.5 1.1 3 .3.4.8.6 1.5.7.6.2 1.3.2 2 0zm-15.3-9.6V30h2.5c.7 0 1.2.2 1.7.4.5.3.7.7.7 1v1h-5zM101.5 42.3c-1.2-1.3-1.6-2.8-1.3-4.8a7.4 7.4 0 012.6-4.5 7.7 7.7 0 015.2-1.8c2.3 0 4 .7 4.9 2.1.7 1.1 1 2.5.7 4.1A7.4 7.4 0 01111 42a7.8 7.8 0 01-5.2 1.7c-1.9 0-3.3-.5-4.3-1.4zm15 1a2 2 0 01-.8-1.4c-.2-.6-.1-1.5 0-2.9l.8-4.2H115l.6-3.3h1.6l.4-2.2 4.9-2.4-.8 4.6h2.4l-.6 3.3H121l-.8 4.3v1c.1.2.3.4.7.4l1.4-.3-.2 3.1a15 15 0 01-3.1.4c-1.1 0-2-.1-2.4-.4zm9-1c-1.2-1.3-1.7-2.8-1.3-4.8a7.4 7.4 0 012.6-4.5 7.8 7.8 0 015.1-1.8c2.3 0 4 .7 5 2.1.7 1.1.9 2.5.6 4.1A7.4 7.4 0 01135 42a7.8 7.8 0 01-5.2 1.7c-1.8 0-3.3-.5-4.2-1.4zm23.7.5A3.4 3.4 0 01148 40l4.5-.4c.1.5.3 1 .6 1.2.3.2.7.3 1.2.3.6 0 1.1-.1 1.5-.4.3-.2.5-.4.5-.7 0-.3 0-.6-.4-.8-.2-.1-.8-.3-1.8-.4l-3-.8c-.6-.3-1-.7-1.4-1.2-.3-.6-.4-1.2-.2-2 0-.7.4-1.4 1-2a5 5 0 012-1.3c.9-.2 2-.4 3.2-.4 1.4 0 2.4.1 3 .3.7.3 1.2.6 1.5 1 .4.5.6 1.1.8 2l-4.3.3c0-.3-.2-.6-.4-.8a2 2 0 00-1.2-.4 2 2 0 00-1.2.3 1 1 0 00-.4.7c0 .3 0 .5.3.6.3.2.9.3 1.8.4 1.5.2 2.5.5 3.2.8.7.3 1.1.7 1.4 1.3.3.6.4 1.2.3 1.9-.1.7-.5 1.3-1 2-.5.6-1.2 1.2-2.2 1.5-1 .4-2.1.6-3.6.6-2.1 0-3.6-.3-4.4-1zm-71.2.6l2-12h4.2l-.3 1.8c.7-.7 1.4-1.2 2.1-1.5.7-.3 1.4-.5 2.3-.5 1 0 1.6.2 2 .5.6.4 1 .9 1.2 1.5.8-.7 1.5-1.3 2.1-1.6.7-.2 1.4-.4 2.2-.4 1.3 0 2.2.4 2.8 1.2.5.7.6 2 .4 3.5l-1.4 7.5h-4.4l1.2-6.8-.1-1.2a1 1 0 00-1-.6c-.5 0-1 .2-1.4.6-.4.4-.6 1-.8 1.9l-1 6.1h-4.5l1.1-6.5c.1-.6.2-1 .1-1.1 0-.3-.1-.6-.3-.7-.2-.2-.5-.3-.8-.3-.5 0-1 .2-1.4.6-.4.4-.6 1-.8 2l-1 6H78zm60 0l2.2-12h4.2l-.4 2c.6-.8 1-1.4 1.6-1.7a3 3 0 011.6-.5 4 4 0 012 .6l-1.9 3.3a3 3 0 00-1.2-.3c-.6 0-1 .2-1.5.7-.5.7-1 2-1.3 4l-.8 4h-4.4zM108 40c.6-.5 1-1.3 1.1-2.5.2-1 .1-1.8-.2-2.3-.3-.5-.8-.7-1.4-.7-.7 0-1.2.2-1.7.7-.6.6-1 1.3-1 2.4-.3 1-.2 1.8.1 2.4.3.5.8.7 1.5.7.6 0 1.2-.2 1.7-.7zm24 0c.5-.5.8-1.3 1-2.5.2-1 .2-1.8-.2-2.3-.3-.5-.8-.7-1.4-.7-.6 0-1.2.2-1.7.7-.5.6-.9 1.3-1 2.4-.3 1-.2 1.8.1 2.4.4.5.9.7 1.5.7s1.2-.2 1.7-.7zm29.8-8.7v-1.6h-.7v-.3h1.9v.3h-.7v1.6h-.5zm1.5 0v-1.9h.7l.4 1.3.4-1.3h.7v2h-.4v-1.6l-.5 1.5h-.4l-.5-1.5v1.5h-.4z" fill="#5A5A5A"></path></svg>