<svg class="client-logo" fill="none" viewBox="0 0 175 75" xmlns="http://www.w3.org/2000/svg"><path d="m0 0h175v75h-175z" fill="none"></path><path class="fill" d="m53.5 50.5-1.5-3.7 14 .7-.5 6zm3.3-29-19.6 9.3 3 14h4l-.7-10 .6-.2 2.4 10.2h4.2l-.1-12.2.6-.2 2.1 12.4h4.4l1-14.8.7-.1 1 14.9h5.9l2-20.5zm77.8 28.5-5.6-1v-.7l5.4-.2-.2-1.4h-6.9l-.3 3.6 5.7 1v.6l-6 .2v1.4h8.2zm-53.6-.5-.1 1.3h2v1.3l-4.3-.1.2-3.7 5.9-.2-.1-1.4h-7.6l-.7 6.8h8.7l-.3-4zm36.5 2.5v-1.2h4v-1.3h-4v-1.2l5.3-.2v-1.4h-7.2l-.3 6.8h7.7v-1.4zm-5.8 1.5-.7-6.8h-2l-2.7 3.3-2.8-3.3h-2l-.7 6.8h2.3l.3-4.4 2.9 3 2.9-3 .2 4.4zm-9.7-31.6h-4.5l-.4 21h5.5l-.5-21zm18.7 0h-14.3l-.5 21h15.9l-1-21zm-4.4 16.4-5 .2-.3-12.5 5.3.2v12zm21.5-11.8-.5-4.6h-14v4l4.6.2.4 16.8h5.6l-1.7-16.6zm-49.3 16.4h6l-3.9-9.4 3.1-1.8-2.1-9.8h-15.4l-.5 4.5h3.5l-1.7 16.5h5.4l.1-5.3 4-2.1zm-5.2-16.7 4.5-.2.5 4.2-5.1 2.4zm12 27.3h2.3l-1.9-6.8h-5.4l-1.8 6.8h2.3l.4-1.7h3.7zm-3.9-3 .5-2.3h2.2l.5 2.2h-3.2z" fill="#5a5a5a"></path></svg>