<svg class="client-logo" fill="none" viewBox="0 0 175 75" xmlns="http://www.w3.org/2000/svg"><path d="m0 0h175v75h-175z" fill="none"></path><g class="fill" fill="#5a5a5a"><path d="m43.5 35.2 4.7 1.9-.7-4 3.6-2.7-4.7-.4-2-3-2.5 3-4.8.6 3 2.5-1.6 4 5-2zm21.5 1.6c2-8.5-6.8-13.5-6.8-13.5l-1.9 1.6s5.2 4 5 8.6c-.7 10.8-13.8 13-13.9 13l-.6 4.6c7-.6 16.4-6 18.3-14.3zm-24.6-15 .9-2.2c-.1 0-9.7.8-15.4 7.8-6.4 8-1.5 16.7-1.5 16.7l3.7-2.2s-4-7.7.6-13.3a20 20 0 0 1 11.7-6.8z"></path><path d="m57.7 35.6c1-3 .3-6.1-2-8l-1.9 1.7c1 1.2 1.2 3.4.4 5.2-.7 2-3.2 5.2-10.2 6.2l-.7 3.4c8.5-.4 13-4.7 14.4-8.5zm-13.9-10.2 1-2.2c-1.3 0-6.7.2-11.4 4a9.1 9.1 0 0 0 -3 11.2l3.2-2a7.3 7.3 0 0 1 1.8-7.5c3.2-3.3 8.4-3.5 8.4-3.5z"></path><path d="m21.2 30.5c4.4-9.2 16.1-11.8 16.2-11.8l1.4-2.5c-.1 0-13 1.2-20 12-6.7 10.4-.8 21.7-.5 22l4.1-2.6c-1-1-5.2-8.7-1.2-17zm39.3-11.2-2 1.9c1 .4 10.1 4.7 10 14.2-.4 12.1-13.8 16.8-16.5 17.6l-.3 5.5a32 32 0 0 0 13.9-7c3.4-3.1 7.5-8.2 7.4-15 0-12.4-12.5-17.2-12.6-17.2zm20.5 6.5v4.7h-1.2v-5.8h2l1.7 4.6v-4.6h1.2v5.8h-2zm8.3.2h-1.2c-.4 0-.7.2-.7.7v1.7c0 .6.3.8.7.8h1.2c.4 0 .6-.2.6-.8v-1.7c0-.5-.2-.8-.6-.8zm-.2-1.3c1.4 0 2 .7 2 2.3v1.2c0 1.5-.6 2.3-2 2.3h-.8c-1.4 0-2.1-.8-2.1-2.3v-1.2c0-1.6.7-2.3 2-2.3zm6.6 2.7c.5 0 .7-.2.7-.4v-.7c0-.2-.3-.4-.7-.4h-1.7v1.5h1.8zm0 1.2h-1.7v1.9h-1.3v-5.8h3.1c1.3 0 1.9.6 1.9 1.7v.4c0 .5-.1 1-.3 1.2.2.3.3.6.3 1.1v1.4h-1.2v-1.5c0-.3-.3-.4-.7-.4zm5.6 1.9h-1.2v-4.6h-1.5v-1.2h4.2v1.2h-1.5zm4.1-2.3v2.3h-1.4v-5.8h1.3v2.3h2.5v-2.3h1.2v5.8h-1v-2.3h-2.5zm11 .2-.7-2.3-.6 2.3zm-1.7 1.2-.2.9h-1.5l1.7-5.8h1.9l1.6 5.8h-1.2l-.3-.9zm5.9-4.3v5h-1.2v-5.7h2.1l1.2 4.4 1-4.4h2.3v5.8h-1.3v-5.1l-1.4 5h-1.3zm8.1 2.9v1h3v1.3h-4.2v-5.8h4.1v1.2h-2.9v1h2.5v1.3zm7.5-.8c.4 0 .6-.2.6-.4v-.7c0-.2-.2-.4-.6-.4h-1.9v1.5h2zm0 1.2h-1.9v1.9h-1.2v-5.8h3.1c1.2 0 1.9.6 1.9 1.7v.4c0 .5-.1 1-.3 1.2.2.3.3.6.3 1.1v1.4h-1.3v-1.5c0-.3-.2-.4-.6-.4zm4.8-3.9v5.8h-1.2v-5.8zm4.6 1.3h-1.2c-.4 0-.6.2-.6.7v1.7c0 .6.2.8.6.8h1.2c.4 0 .6-.2.6-.7h1.3c-.1 1.3-.8 2-2 2h-1c-1.3 0-2-.8-2-2.3v-1.2c0-1.6.7-2.3 2-2.3h1c1.2 0 1.9.6 2 2h-1.3c0-.5-.2-.8-.6-.8zm5.9 2.4-.6-2.3-.7 2.3zm-1.6 1.2-.3.9h-1.3l1.7-5.8h1.8l1.7 5.8h-1.5l-.2-.9h-2zm5.9-3.8v4.7h-1.3v-5.8h2.1l1.7 4.6v-4.6h1.2v5.8h-2zm-3.9 8.5h-2.6v12.6l-.1.3-.4.2h-.2c-.1 0-.2 0-.3-.2a.5.5 0 0 1 -.2-.3v-12.6h-2.6v12.7a2.7 2.7 0 0 0 .9 2 2.8 2.8 0 0 0 1.9.7h.8c.4 0 .8 0 1.1-.2a2.8 2.8 0 0 0 1.7-2.5zm7.6 2.5v-2.6h-5.5v15.3h5.4v-2.6h-2.8v-4.4h2.4v-2.6h-2.4v-3.1h2.8zm-32.8 0v-2.6h-5.3v15.3h5.3v-2.6h-2.7v-4.4h2.5v-2.6h-2.5v-3.1h2.8zm-7.2 10.1h-3v-12.7h-2.5v15.3h5.5zm23.9-9.1v-1c0-.4-.1-.7-.3-1a2.8 2.8 0 0 0 -2.5-1.7h-.8c-.4 0-.8 0-1.1.2a2.8 2.8 0 0 0 -1.5 1.4l-.2 1.1v10.2c0 .4 0 .7.2 1a2.9 2.9 0 0 0 1.5 1.5c.3.2.7.3 1 .3h.9a2.7 2.7 0 0 0 2-.9 2.8 2.8 0 0 0 .7-1.9v-6.5h-3.1v2.5h.6v3.9c0 .1 0 .3-.2.4l-.3.1h-.2l-.4-.1a.5.5 0 0 1 -.1-.4v-9.9l.1-.3c.1-.2.2-.2.4-.2h.2c.1 0 .2 0 .3.2.1 0 .2.1.2.3v1.8zm-11.9 6.6.4-6h.2l.4 6zm2.3-10.2h-3.5l-1.7 15.3h2.6l.2-2.7h1.3l.2 2.7h2.6zm-36.8 10.2.4-6h.2l.4 6zm4 5.1-1.8-15.3h-3.5l-1.7 15.3h2.6l.2-2.7h1.4l.1 2.7h2.6zm4.3-8.5v-4.4h.7c.2 0 .3 0 .4.2l.1.3v3.4l-.1.4-.4.1zm1.7 8.6h2.6l-2-6.6c.4-.2.8-.5 1-1 .4-.4.5-.9.5-1.4v-3.6c0-.3 0-.7-.2-1a2.8 2.8 0 0 0 -1.5-1.5l-1-.2h-3.6v15.3h2.5v-5.7zm-13.5-15.3h-6.2v2.6h1.7v12.7h2.6v-12.7h1.8v-2.6zm-7.4 3.7v-1a2.7 2.7 0 0 0 -.8-2l-.8-.5c-.4-.2-.7-.3-1.1-.3h-.8c-.4 0-.8.1-1.1.3a2.8 2.8 0 0 0 -1.5 1.4l-.2 1v2.7l.1.8.5.6 2.8 2.2c.2.1.2.2.3.4v3.6l-.4.2h-.2c-.2 0-.3 0-.4-.2a.5.5 0 0 1 -.1-.3v-3l-2.6.6v2.5c0 .4 0 .7.2 1a2.8 2.8 0 0 0 2.6 1.7h.8c.4 0 .7 0 1-.2a2.8 2.8 0 0 0 1.6-1.5c.2-.3.2-.6.2-1v-3.8l-.1-.7c0-.2-.2-.4-.5-.6l-2.8-2.2a1 1 0 0 1 -.3-.3v-2.4l.1-.4.4-.1h.2l.3.1.2.4v1.7l2.3-.7z"></path></g></svg>