<svg class="client-logo" fill="none" viewBox="0 0 175 75" xmlns="http://www.w3.org/2000/svg"><path d="m0 0h175v75h-175z" fill="none"></path><g class="fill" fill="#5a5a5a"><path clip-rule="evenodd" d="m127.1 33v3.3h4.8v18h5v-22.9l-9.9 1.6z" fill-rule="evenodd"></path><path d="m65 36v2.8h5.4v2.7h-5.4v4.7h-3.4v-13h13.4v2.8zm15 2-2 3.6h3.8l-1.9-3.6zm4.3 8.2-1.2-2.2h-6.4l-1.2 2.2h-3.1l5.8-10.7h3.4l5.8 10.7h-3zm10.6-8.3v8.3h-3v-8.3h-4.8v-2.4h13v2.5h-5.2zm21.9 8.3v-10.7h3v8.3h8.1v2.4h-11zm-9.8-8.2-1.8 3.6h3.7zm4.5 8.2-1.2-2.2h-6.5l-1.2 2.2h-3l5.7-10.7h3.4l5.9 10.7zm34.9-8.3v8.3h-3v-8.3h-4.8v-2.4h13v2.5h-5.2zm14.8 3.6v4.7h-2.7v-4.7l-6-6h3.8l3.6 3.8 3.7-3.7h3.4l-5.8 6z"></path><path clip-rule="evenodd" d="m162.6 46.2v-.8h-.4v-.2h1.1v.2h-.4v.8zm.8 0v-1h.3l.4.5.3-.5h.3v1h-.2v-.6l-.4.5-.4-.5v.6zm-142.6 10.7v-10.2h-10.2l11.6-11.6h-14l17.3-17.3-5.4 14h8l-4.8 12.5h2.5zm1.8 0 2-5h3zm4-10.3 1.4-3.6h-2.5l1-2.6h20.2l-6 6.2h-14.2zm2-11.5 1.9-4.7h-8.1l1-2.6h39l-7 7.3z" fill-rule="evenodd"></path></g></svg>