<svg class="client-logo" fill="none" viewBox="0 0 175 75" xmlns="http://www.w3.org/2000/svg"><path d="m0 0h175v75h-175z" fill="none"></path><g class="fill" fill="#5a5a5a"><path clip-rule="evenodd" d="m25.8 24.8a63.3 63.3 0 0 0 -5.3 6.8 19 19 0 0 0 -3.8 9.4c0 5 4.4 9 9.7 9s9.6-4 9.6-9a19 19 0 0 0 -3.8-9.4c-2-3-4-5.6-5.2-6.8a.8.8 0 0 0 -.6-.3c-.3 0-.5.1-.6.3zm7.4 15.4c-.1-1.6-.8-3-2-4.2l-4.8 5v-7a7 7 0 0 0 -6.8 5.5 6.8 6.8 0 0 0 4.1 7.7 7 7 0 0 0 8.4-2.5 6.8 6.8 0 0 0 1.1-4.5z" fill-rule="evenodd"></path><path d="m59.4 44.3h-3.8l-6.4-9.6v9.6h-3.8v-15.6h3.8l6.4 9.7v-9.7h3.8zm14.2-6.5c0 .3 0 .7-.2 1h-8.6c0 1 .3 1.6.7 2 .5.4 1 .6 1.7.6.6 0 1-.1 1.4-.4s.6-.6.7-1h4c-.1.8-.5 1.6-1 2.3-.6.7-1.3 1.2-2.1 1.6s-1.8.6-2.8.6c-1.2 0-2.3-.3-3.3-.8s-1.6-1.2-2.2-2.2c-.5-1-.8-2-.8-3.4 0-1.3.3-2.4.8-3.3.5-1 1.3-1.7 2.2-2.2 1-.5 2-.8 3.3-.8 1.2 0 2.3.3 3.2.8 1 .5 1.7 1.2 2.2 2 .5 1 .8 2 .8 3.2zm-3.9-.6c0-.8-.2-1.4-.7-1.8-.4-.4-1-.6-1.6-.6-.7 0-1.3.2-1.8.6-.4.4-.7 1-.7 1.8zm23.8-5.2-3.2 12.3h-4.3l-2.2-8.3-2.3 8.3h-4.2l-3.3-12.3h3.8l1.6 8.9 2.4-9h4l2.4 9 1.6-9h3.6zm5.6-.2c1.6 0 2.9.4 3.8 1.2a5 5 0 0 1 1.8 3h-3.7c0-.4-.3-.8-.7-1a2 2 0 0 0 -1.4-.5c-.4 0-.7 0-1 .3-.2.1-.3.4-.3.7 0 .4.2.7.6.9l2 .6c1 .2 1.7.4 2.3.7.6.2 1.1.5 1.6 1 .4.6.6 1.3.6 2.1s-.1 1.4-.5 2c-.4.5-1 .9-1.7 1.2s-1.6.5-2.6.5c-1.7 0-3-.4-4-1.1-1-.8-1.6-1.8-1.9-3.2h3.7c0 .5.3 1 .7 1.2.4.3.9.4 1.5.4.5 0 .8 0 1-.2.2-.3.3-.5.3-.8 0-.5-.2-.8-.6-1l-2-.5a16 16 0 0 1 -2.2-.7c-.6-.2-1.1-.5-1.6-1a3 3 0 0 1 -.6-2c0-1.2.4-2 1.2-2.7.9-.7 2-1 3.6-1zm12.3 0c1 0 1.8.2 2.5.7.7.4 1.2 1 1.5 1.7v-6.2h3.8v16.4h-3.8v-2.2c-.3.7-.8 1.3-1.5 1.7-.7.5-1.5.7-2.5.7s-1.9-.3-2.7-.8a5.4 5.4 0 0 1 -2-2.2c-.4-1-.6-2-.6-3.4 0-1.3.2-2.4.7-3.3.4-1 1-1.7 1.9-2.2a5 5 0 0 1 2.7-.8zm1.3 3.3c-.8 0-1.5.3-2 .8-.5.6-.7 1.3-.7 2.2 0 1 .2 1.7.7 2.3.5.5 1.2.8 2 .8s1.4-.3 2-.9a3 3 0 0 0 .7-2.2 3 3 0 0 0 -.8-2.1c-.5-.6-1.1-.9-2-.9zm12.7-.8c.5-.8 1-1.4 1.8-1.8s1.6-.7 2.5-.7v4h-1.1c-1 0-1.8.3-2.4.7-.5.5-.8 1.2-.8 2.2v5.6h-3.8v-12.3h3.8zm11.4-2.5c1.3 0 2.4.3 3.3.8 1 .5 1.8 1.2 2.3 2.2.6 1 .9 2 .9 3.3s-.3 2.4-.9 3.4c-.5 1-1.3 1.7-2.3 2.2a7 7 0 0 1 -3.3.8c-1.2 0-2.3-.3-3.3-.8s-1.7-1.2-2.3-2.2c-.5-1-.8-2-.8-3.4 0-1.2.3-2.4.8-3.3.6-1 1.3-1.7 2.3-2.2s2-.8 3.3-.8zm0 3.3c-.7 0-1.3.3-1.8.8s-.8 1.3-.8 2.2c0 1 .3 1.8.8 2.3s1.1.8 1.8.8c.8 0 1.4-.3 1.8-.8.5-.5.8-1.3.8-2.3s-.3-1.7-.8-2.2c-.4-.5-1-.8-1.8-.8zm15.9-3.3a5 5 0 0 1 4.6 3c.6 1 .8 2 .8 3.3s-.2 2.4-.7 3.4-1.1 1.7-2 2.2a5 5 0 0 1 -2.7.8c-1 0-1.7-.2-2.4-.7-.7-.4-1.2-1-1.5-1.7v8.1h-3.8v-18.2h3.8v2.2c.3-.7.8-1.3 1.5-1.7.7-.5 1.5-.7 2.4-.7zm-1.2 3.3c-.8 0-1.4.3-2 .9a3 3 0 0 0 -.7 2.1c0 1 .2 1.7.7 2.2.6.6 1.2.9 2 .9s1.5-.3 2-.8a3 3 0 0 0 .7-2.3 3 3 0 0 0 -.7-2.2c-.5-.5-1.2-.8-2-.8z"></path></g></svg>