<svg class="client-logo" fill="none" viewBox="0 0 175 75" xmlns="http://www.w3.org/2000/svg"><path d="m0 0h175v75h-175z" fill="none"></path><path class="fill" d="m69 27.7h-6.3v7.7h-6.4v-7.7h-6.3v19.5h6.2v-7.7h6.4v7.7h6.4zm21.5 15.5v-15.5h-6.2v19.5h11.3l.9-4zm-10.8-15.5h-6.2v19.5h6.2zm25.2 0h-6.2v19.5h6.2zm30.6 5c0-1.1 1.1-1.6 2.9-1.6 2 0 4 .4 5.5 1l-.5-4.3c-1.6-.3-3-.6-5.7-.6-5 0-8.4 2-8.4 6 0 6.8 9.7 5.4 9.7 8.6 0 1.2-1 1.9-3.2 1.9-2 0-5.2-.7-7.1-1.6l.7 4.5c1.9.7 4.4 1 6.4 1 5.2 0 9.5-1.7 9.5-6.6 0-6.5-9.8-5.3-9.8-8.4zm-17.5 9.7c5.8 0 9.4-2.8 9.4-7.8 0-5.5-3.9-7.5-10.3-7.5a73 73 0 0 0 -7.5.5v19.5h6.2v-4.7zm3.3-7.7c0 2.5-1.3 4.2-4.5 4.2h-1v-8h1c3 0 4.5 1.3 4.5 3.8zm-83.1 7.7c5.7 0 9.4-2.8 9.4-7.8 0-5.5-4-7.5-10.3-7.5a73 73 0 0 0 -7.5.5v19.5h6.2v-4.7zm3.3-7.7c0 2.5-1.3 4.2-4.5 4.2h-1v-8h1c3 0 4.5 1.3 4.5 3.8z" fill="#5a5a5a"></path></svg>