<svg class="client-logo" fill="none" viewBox="0 0 175 75" xmlns="http://www.w3.org/2000/svg"><path d="m0 0h175v75h-175z" fill="none"></path><g class="fill" clip-rule="evenodd" fill="#5a5a5a" fill-rule="evenodd"><path d="m102.3 4.8h.3l-1.4 2.5h14.3v23l.8 1v.1l-.8 1v37.6h-55.2v-37.3l-1.5-4.9 1.5.3v-20.8h24.3c.9.1 1.5-.5 2.3-.7l15.5-1.8zm-15.3 3-19.5 8.9h6.4l-6.9 6.6-1.5 7.3-4.8-1 6.8 18h-2.4l-3.4-10.7c-.1-.2-.1 0-.1.1v31.8h52.7v-34.6l-3.6 5-5.8 8.3h-4.2l13.9-16.3-15.7-23.4 1-1.7-13 1.7zm-25.3.8v19.8l2.7.6.8-4.5.4-2.2c2.1-1.6 4.3-3.2 6.4-5-2.1 0-4.2.1-6.4 0l1.1-1.3 8.3-3.9 7.5-3.5h-20.9zm40.1 0 2.2 3.4 6.8 10.6 3.5 5.5v-19.5h-12.6z"></path><path d="m71.2 15.5 15.4-6.3h8.4l17.3 21.6-22 18-18.7-4-6.6-12.8 15 3 5.1 3.3 3.4 6 .2-1.2-2.3-5.9 5.4-16.3-5-5.2h-15.5zm25.7 3.5 2 .8-1 .9.6 3.7 2.1-5.8z"></path><path d="m75.3 16.4h10.8l3.7 5-4 13.9-1.6.9-2.4-1.7c-.2-2-.1-4-1.2-5.6l-.4 4.8-10.8-1.9 5.2-5.2 2.2.1-.4-1.8-7.3 4.3.3-5.5 6-7.3zm-1 4 .7 1.2 10 1c.3-.5.7-1 1.1-1.3l-1.5-2.1c-1.4.3-2.7.8-4 1-1.8.2-3.3-.8-4.8-1.4zm3.9 6.6 2.6.5-1-2z"></path><path d="m76.1 20 2.2.8-.2.7-1.7-.4-.3-1zm5.1 1 2.5-.5-.4 1.1-2.3.2.2-.7zm1.1 30.4c1-.8 2.4-.7 3.5-.1 1 .6.6 1.9.7 2.9h-1.7c0-.6.1-1.1 0-1.6-.4-.6-1.5-.4-1.5.4v5.9c0 .8 1.4.9 1.5 0v-2h-1v-1.5h2.7v5.3h-1.4v-.7c-.9 1.3-3.3 1-3.5-.7v-5.6c0-.9 0-1.8.7-2.4zm23.7.8c.6-1.5 2.7-1.7 3.9-1 .8.7.7 1.8.7 2.7h-1.6v-1.3c-.2-.6-1.3-.5-1.5 0-.1.7 0 1.6.6 2 1 .7 2.5 1.3 2.6 2.8 0 1 .2 2.3-.6 3-1 .7-2.5.7-3.5 0s-.7-2-.8-3.1h1.7v1.7c.1.8 1.5.7 1.5 0 0-.8.2-1.6-.3-2.1l-2-1.5c-1-.8-1-2.1-.7-3.2zm-41 .5c.1-1 1-1.6 1.9-1.7h4.7c.9 0 1.7.8 1.8 1.7v2.7h-2.7v-1.8h-2.8v3.2h3.8c.9 0 1.7.8 1.7 1.7v5c0 1-1 1.7-1.9 1.8h-4.5c-1 0-1.9-.8-2-1.8v-2.8h3v1.9h2.8v-3.3h-3.8c-.9 0-1.8-.6-1.8-1.5v-5.1zm23.6-1.7h2l1.6 9.7h-1.7l-.2-1.6h-1.5l-.3 1.6h-1.5l1.7-9.7zm.4 6.6h1l-.5-3.9c-.3 1.3-.4 2.6-.6 4zm3.6 3.1v-9.7h2.8l1 6.6.9-6.6h2.7v9.7h-1.6l.1-8.2-1.4 8.2h-1.5l-1.4-8v8zm8.4-9.7h4.3v1.5h-2.6v2.3h2.5v1.4h-2.5v3h2.8v1.5h-4.5zm-25.4.2c1-.2 2.2 0 3.3 0 .7-.1 1.4.4 1.5 1.1v3.7c0 .6-.6 1.1-1.2 1.2h-2.5v1.6h3.7v1.9h-5.7v-4.4c0-.4.4-.9.9-.9h2.9v-2.4h-1.8v1.4h-2c.2-1-.4-2.7.9-3.2zm-.9 10.7h36v3.3h-36v-3.2z"></path></g></svg>