<svg class="client-logo" fill="none" xmlns="http://www.w3.org/2000/svg" viewBox="0 0 175 75"><path fill="none" d="M0 0h175v75H0z"></path><path class="fill" d="M36.4 33.8h8.8l-.1 2.4a8.7 8.7 0 01-1.8 4.5c-.5.6-1.1 1.2-1.9 1.7a10.3 10.3 0 01-8.8.7 8.3 8.3 0 01-4.6-4.7 10 10 0 01-.7-3.7c0-1.3.2-2.5.7-3.6.4-1.1 1-2 1.8-2.8.8-.8 1.7-1.4 2.9-1.9 1-.4 2.3-.6 3.7-.6 1.8 0 3.3.3 4.7 1.1a8 8 0 013.2 3.6L40 32.2c-.4-.9-1-1.6-1.6-2a4.2 4.2 0 00-6.2 2.5A7 7 0 0032 35c0 .7 0 1.4.2 2 .2.6.5 1.2.9 1.6.4.5.8.8 1.4 1 .5.3 1.2.4 2 .4l1.2-.1 1-.5 1-.8c.1-.4.3-.8.3-1.3h-3.6v-3.4zM52.4 39.5h1c.8 0 1.5 0 2.1-.3a4.3 4.3 0 002.5-2.5c.2-.6.3-1.2.3-2 0-.6 0-1.2-.3-1.8a4.3 4.3 0 00-2.5-2.5c-.6-.3-1.3-.4-2-.4h-1v9.5zM48 26.2h6.6c1.1 0 2.2.3 3.2.7a8.6 8.6 0 014.5 4.6 8.2 8.2 0 010 6.5c-.4 1-1 2-1.8 2.7-.7.8-1.6 1.4-2.7 1.9-1 .5-2 .7-3.2.7H48v-17zM70.2 39.9h1a5 5 0 002.4-.5c.5-.3.7-.7.7-1.3 0-.7-.2-1.1-.7-1.4a5 5 0 00-2.4-.5h-1V40zm0-7h.8c1.4 0 2.1-.5 2.1-1.6s-.7-1.7-2-1.7h-.9V33zm-4.4-6.7h6.6c1.6 0 2.8.4 3.6 1.2.8.7 1.2 1.8 1.2 3.2 0 .9-.2 1.6-.5 2.2-.3.5-.7 1-1.4 1.4a5 5 0 011.6.6c.5.2.8.5 1.1.9.3.3.5.7.6 1.2a5.6 5.6 0 01-.2 3.6 5 5 0 01-3 2.5c-.8.2-1.6.3-2.5.3h-7.1v-17zM88.8 34.7c-.8-.4-1.5-.6-2.2-.6-.4 0-.7 0-1 .2l-.3.6v.4l.3.2.6.2 1 .2c1 .3 2 .7 2.5 1.2.5.6.8 1.4.8 2.3a4 4 0 01-1.5 3.2c-.5.3-1 .6-1.8.8-.6.2-1.4.3-2.2.3-1.6 0-3.1-.4-4.6-1.3l1.5-2.9c1.1.8 2.2 1.2 3.2 1.2.4 0 .7-.1 1-.3.2-.1.3-.3.3-.6v-.4l-.3-.2-.5-.3-1-.2a5.4 5.4 0 01-2.6-1.1c-.5-.5-.8-1.2-.8-2.1 0-.7.2-1.3.4-1.8s.6-1 1-1.3c.5-.4 1-.6 1.7-.8.6-.2 1.3-.3 2.1-.3 1.3 0 2.6.2 3.8.7l-1.4 2.7zM101.9 37.5l-.2-1-.6-.8c-.2-.3-.5-.5-.9-.6-.3-.2-.6-.2-1-.2a2.6 2.6 0 00-1.8.7l-.6.9-.2 1a2.6 2.6 0 00.8 1.9l.8.5a2.7 2.7 0 002 0c.4-.1.6-.3.9-.5l.5-.9c.2-.3.3-.6.3-1zm-5.2 11.6h-4.1V31.7h4.1V33c.9-1.1 2-1.7 3.6-1.7.8 0 1.6.2 2.3.5a5.7 5.7 0 013 3.3 6.5 6.5 0 010 4.8 5.9 5.9 0 01-3 3.3c-.7.3-1.5.5-2.3.5-1.4 0-2.6-.5-3.6-1.5V49zM112.3 37.5a2.8 2.8 0 00.7 1.9 2.6 2.6 0 003 .5l.8-.5.5-.9c.2-.3.3-.6.3-1s-.1-.7-.3-1a2.6 2.6 0 00-2.4-1.6c-.4 0-.7 0-1 .2-.4.1-.6.3-.9.5l-.5.9c-.2.3-.2.6-.2 1zm5.1-5.8h4.2v11.6h-4.2V42c-.8 1.1-2 1.7-3.5 1.7a5.8 5.8 0 01-5.4-3.7 6.9 6.9 0 010-4.9 6 6 0 011.1-2c.6-.5 1.2-1 1.9-1.3.7-.3 1.5-.5 2.3-.5 1.5 0 2.7.5 3.6 1.5v-1.1zM133.1 35.4c-.7-.4-1.4-.7-2.2-.7a2.7 2.7 0 00-2 .8 2.6 2.6 0 00-.8 2l.2 1.2.6.8c.3.3.6.5 1 .6l1 .2c.8 0 1.5-.2 2.2-.8V43c-1 .4-2 .7-2.9.7-.8 0-1.6-.2-2.4-.5-.8-.3-1.4-.7-2-1.2-.6-.5-1-1.2-1.4-2a6 6 0 01-.5-2.4 6.2 6.2 0 011.8-4.5 6 6 0 012-1.3 6.9 6.9 0 015.4.2v3.4zM144 35.8c-.2-.6-.5-1-1-1.4-.3-.3-.8-.5-1.5-.5-.6 0-1.1.2-1.5.5-.4.3-.7.8-.8 1.4h4.7zm-4.9 2.4c0 1.8.9 2.6 2.5 2.6 1 0 1.6-.3 2-1h4c-.8 2.6-2.8 4-6 4a8 8 0 01-2.7-.5c-.8-.3-1.5-.7-2.1-1.3-.6-.5-1-1.2-1.3-2-.4-.7-.5-1.5-.5-2.4 0-1 .1-1.9.4-2.6a5.5 5.5 0 013.3-3.3c.8-.3 1.7-.4 2.7-.4 1 0 1.9.1 2.7.4a5.2 5.2 0 013.2 3.3c.3.8.4 1.7.4 2.8v.4h-8.6z" fill="#5A5A5A"></path></svg>