<svg class="client-logo" fill="none" xmlns="http://www.w3.org/2000/svg" viewBox="0 0 175 75"><path fill="none" d="M0 0h175v75H0z"></path><path class="fill" fill-rule="evenodd" clip-rule="evenodd" d="M105.5 63.9V43.3h8a7.3 7.3 0 01-1 14.7h-3.4V63.9h-3.6zm-39.6-6h-3.5a7.4 7.4 0 01-.9-14.6h8V58h-3.6zm66.7 0h-3.4a7.4 7.4 0 01-1-14.6h8V58h-3.6zm-93.8 0V43.4h7.5a7.4 7.4 0 016.9 7V58h-3.7v-7.6A3.7 3.7 0 0046 47h-3.6v11h-3.6zm33 0V43.4h7.5a7.4 7.4 0 017 7V58h-3.7v-7.6A3.7 3.7 0 0079 47h-3.6v11h-3.6zm18-2a7.4 7.4 0 014.7-12.6h2.8a7.4 7.4 0 01-1 14.7h-1c-1.9 0-4-.7-5.4-2.2zm39-1.6h3.8V47h-3.9a3.7 3.7 0 00.1 7.4zm-66.7 0zm3.8 0v-3.5V47h-4a3.7 3.7 0 00-2.4 6.4c.7.7 1.6 1 2.6 1h3.8zm49.6-1a3.7 3.7 0 00-2.5-6.4h-3.9v7.4h3.8c1 0 1.9-.3 2.6-1zm-20.5 1h1.7a3.7 3.7 0 000-7.4H95c-1 0-1.9.4-2.5 1a3.7 3.7 0 002.5 6.4zM74.5 30.7a9.6 9.6 0 1116.2-10.2 9.6 9.6 0 00-1.2 10.2c-.4.6-1 1-1.5 1.5a9.6 9.6 0 01-13.5-1.5z" fill="#5A5A5A"></path><path class="fill" fill-rule="evenodd" clip-rule="evenodd" d="M92 31.3a7.7 7.7 0 1112.2-9.6 7.7 7.7 0 01-12.1 9.6zM90.5 16.5a3.4 3.4 0 115.4-4.3 3.4 3.4 0 01-5.4 4.3zM66 32.9a3.4 3.4 0 115.3-4.3 3.4 3.4 0 01-5.3 4.3z" fill="#5A5A5A"></path></svg>