<svg class="client-logo" fill="none" xmlns="http://www.w3.org/2000/svg" viewBox="0 0 175 75"><path fill="none" d="M0 0h175v75H0z"></path><path class="fill" d="M59.9 48a3.5 3.5 0 01-1.4-2.9c0-1.1.4-2 1.2-2.8.8-.6 1.8-1 3-1a5.7 5.7 0 012.4.6l.6.3-.4 1.2a4.8 4.8 0 00-2.6-.8c-.8 0-1.4.2-1.9.6-.6.5-.8 1.1-.8 2 0 .7.2 1.3.8 1.8a3 3 0 002 .7A5 5 0 0065 47v-1h-2.3v-1h3.4V48c-1 .7-2.2 1-3.5 1-1 0-2-.3-2.7-.8zm88.3 0a3.5 3.5 0 01-1.3-2.9c0-1.1.4-2 1.2-2.8.7-.6 1.7-1 3-1a5.6 5.6 0 012.3.6c.3 0 .5.2.7.3l-.5 1.2c-.4-.3-.8-.5-1.3-.6-.4-.2-.8-.2-1.2-.2-.8 0-1.4.2-2 .6-.5.5-.8 1.1-.8 2 0 .7.3 1.3.9 1.8a3 3 0 002 .7 5.2 5.2 0 002.2-.6v-1H151v-1h3.4V48c-1 .7-2.3 1-3.5 1-1.1 0-2-.3-2.8-.8zm-71.1.8l3.2-7.3h1.3l3.3 7.3h-1.4l-1-1.9h-3.3l-.9 1.9h-1.2zm18.7 0v-7.3h1.8l2.3 4.3 2.5-4.3h1.6v7.3h-1.4v-5l-2.8 4.9-2.7-5v5h-1.3zm19.8 0v-7.3h1.4v7.3h-1.4zm13 0v-7.3h1.3l4.6 4.9v-5h1.3v7.4h-1.1l-4.8-5v5h-1.3zm-46.4-2.9l-1.3-2.6-1.3 2.6h2.6zM33.9 16l.7-.1.6.1H34z" fill="#5A5A5A"></path><path class="fill" fill-rule="evenodd" clip-rule="evenodd" d="M108.4 35.7a5.8 5.8 0 01-1.8-4.3 6 6 0 01.9-3.1c1-1.8 2.9-2.7 5.5-2.8 2 0 3.5.6 4.6 1.6a5.7 5.7 0 011.8 4.4c0 1.1-.3 2.1-.9 3-1 2-3 2.8-5.5 2.8-2 0-3.5-.5-4.6-1.6zm-49.9 1.4V25.7h7c.7 0 1.3 0 1.8.2.4.1.8.3 1 .6.7.5 1 1.3 1 2.3 0 1-.5 1.9-1.7 2.4 1.4.4 2.1 1.3 2.1 2.7a3 3 0 01-2.3 3c-.5.2-1 .2-1.8.2h-7.1zm17 0V25.7h10.3v1.9h-8v2.7h5.5v1.8h-5.5v3.2H86V37H75.6zm19.7 0v-4.7l-4.6-6.7h2.6l3.1 4.5 3.2-4.5h2.4l-4.5 6.7V37h-2.2zm30.2 0V25.7h2l7.4 7.7v-7.7h2v11.4H135l-7.6-7.8v7.8h-2zm18.2 0V25.7h5.6c1.4 0 2.4.2 3.2.5 1 .5 1.8 1.2 2.3 2.3.4.8.6 1.8.6 3 0 1.9-.6 3.4-1.8 4.4-.5.5-1 .8-1.7 1-.7.2-1.5.2-2.6.2h-5.6zm-27.8-2.7c.5-.4.8-.8 1-1.4l.3-1.5c0-1.3-.4-2.3-1.3-3-.7-.7-1.7-1-2.8-1a4 4 0 00-2.8 1c-.9.7-1.3 1.7-1.3 3 0 1.2.4 2.2 1.3 3 .8.6 1.7.9 2.8.9a4 4 0 002.8-1zm-49 .5c.4-.2.7-.6.7-1.2s-.3-1-.7-1.2c-.4-.2-1-.3-1.8-.3h-4.3v3H65c.9 0 1.4 0 1.8-.3zm84.5 0c1.1-.6 1.7-1.8 1.7-3.5 0-1.2-.3-2.1-1-2.8a3 3 0 00-1.1-.8l-1.9-.2h-3.2v7.7h3.2a5 5 0 002.3-.5zm-84.6-5c.3-.1.4-.5.4-1 0-.4-.1-.8-.4-1-.3-.2-.8-.3-1.5-.3h-4.5v2.7h4.5c.7 0 1.2-.1 1.5-.3zM30.6 56.9s-10.7-9-10.7-17V19.6l14-3.8h1.3l14 3.8v20.1c0 8-10.6 17-10.6 17S36 59 34.6 59s-4-2-4-2zm7.6-2.4s9.3-8.6 9.3-16.2l-.2-17-12.7-3.5-12.8 3.4-.2 17c0 7.7 9.4 16.3 9.4 16.3s2.3 2 3.6 2c1.2 0 3.6-2 3.6-2zm-9-5.3a10 10 0 01-1-1.2c-1.5-2-2-4-1.4-6.2.5-2 1.8-3.9 4-5.4a11.4 11.4 0 014.6-2l2-.3h.1c.3 0 .6-.2.8-.3.6-.4 1-1 1-1.7 0-.8-.4-1.3-1-1.7A5 5 0 0036 30h-6v3.5h4c-2 .4-4.6 1.3-6.7 3.2H27V30h-1.5l.7-2.6h.8v-6.2h9.6c1 0 1.8 0 2.4.2.6.2 1.1.4 1.6.8.9.7 1.3 1.8 1.3 3.1 0 1.6-.8 2.7-2.4 3.3 2 .7 3 2 3 3.7a4.1 4.1 0 01-3.3 4.2c-.4.2-1 .2-1.5.3h-.2c-1 0-2 .2-2.8.5l-2.4 1.2a6 6 0 00-2.5 3.5 5 5 0 001 4.3c.9 1.4 2.1 2 3.6 2.2 1.5.1 2.9-.3 4.3-1.3a10.7 10.7 0 003.2-3.6l-2.2.8-3.4-2 6.9-1.1 1.5 2.2a14 14 0 01-4.8 6c-1.9 1.4-3.8 2-5.7 2-2-.2-3.6-1-5-2.3zm9-22.2c.4-.3.6-.8.6-1.4 0-.7-.2-1.2-.7-1.4-.4-.3-1-.5-2-.5h-6.2v3.7h6.2c1 0 1.6-.1 2-.4z" fill="#5A5A5A"></path></svg>