<svg class="client-logo" fill="none" viewBox="0 0 175 75" xmlns="http://www.w3.org/2000/svg"><path d="m0 0h175v75h-175z" fill="none"></path><g class="fill" clip-rule="evenodd" fill="#5a5a5a" fill-rule="evenodd"><path d="m87.9 30.2v19h5v-19zm-23.9 0v19h5v-19zm41.4 0v19h5v-19zm-50.1 16.8a9.7 9.7 0 1 1 0-14.7l-3.3 3.7a4.9 4.9 0 1 0 0 7.5l3.3 3.6zm-24.3-11.2-1.5 4.8h3.1l-1.5-4.8zm-3 9.9-1.2 3.5h-5.3l9.6-27.7 9.6 27.7h-5.3l-1.2-3.5z"></path><path d="m61.2 28.6h7.8l9.4 25 9.3-25h23.6l-2.7-5h-24.4l-5.8 15-5.7-15h-25.2l-2.8 5h11.5v20.6h5zm50 11.1a9.7 9.7 0 1 1 19.5 0 9.7 9.7 0 0 1 -19.5 0zm5 0a4.8 4.8 0 1 1 9.6 0 4.8 4.8 0 0 1 -9.6 0zm24.3-2.3v-7.2h5v19.7l-9-8.8v8h-5v-19.3l9 7.7zm9.7 9h1.1l.1.4-.1.4h-1.1zm-.7 2.6h.7v-1.2h1l.2.4a11.4 11.4 0 0 1 .1.8h.7l-.1-.2v-.3-.3c0-.1 0-.3-.2-.4 0-.2-.1-.2-.3-.3.2 0 .3-.2.4-.3v-.5c0-.2 0-.4-.2-.6a1 1 0 0 0 -.6-.3h-1.7z"></path><path d="m147.9 47.5a2.8 2.8 0 1 1 5.6 0 2.8 2.8 0 0 1 -5.6 0zm.3 0a2.5 2.5 0 1 1 5 0 2.5 2.5 0 0 1 -5 0zm-48.9-12.3c0-.8.8-.9 1.3-.9h3.3v-4.1h-5c-3.7 0-4.4 2.7-4.4 4.4 0 4.4 5.1 7.4 5.1 9.1 0 1-1.1 1.2-1.7 1.2h-3.6v4.3h5.4c1.8 0 4.9-.9 4.9-4.3 0-5-5.3-7.5-5.3-9.7z"></path></g></svg>