<svg class="client-logo" fill="none" viewBox="0 0 175 75" xmlns="http://www.w3.org/2000/svg"><path d="m0 0h175v75h-175z" fill="none"></path><g class="fill" fill="#5a5a5a"><path d="m90.6 38.9 3.6 6h-14.8l-8.6-14.3.4-.2 10.5-6.4 9 14.9z"></path><path clip-rule="evenodd" d="m71.2 49c1.3 0 2.6.3 3.6 1v-5h3.2v17h-3v-.8a6.7 6.7 0 1 1 -3.9-12.2zm0 10.3c1.8 0 3.3-1.3 3.6-3v-1.3c-.3-1.7-1.8-3-3.6-3a3.7 3.7 0 0 0 0 7.4z" fill-rule="evenodd"></path><path d="m82.8 62h-3.4v-13h3.4zm0-14h-3.4v-3h3.4z"></path><path clip-rule="evenodd" d="m56.7 49c1.2 0 2.5.3 3.6 1v-.7h3v12.6h-3v-.7c-1 .7-2.3 1.1-3.6 1.1a6.7 6.7 0 0 1 0-13.4zm0 10.3c1.8 0 3.2-1.3 3.6-3v-1.3c-.4-1.7-1.8-3-3.6-3a3.7 3.7 0 0 0 0 7.4z" fill-rule="evenodd"></path><path d="m122.3 54.7h.3c1.4.7 2.1 1.7 2.1 3a3.8 3.8 0 0 1 -2.2 3.7l-.3.1c-.9.4-1.9.6-3 .6-1.7 0-3.1-.3-4.2-.9-1.3-.8-2-2-2-3.5h3.5c0 .6.2 1 .6 1.4.4.3 1.2.5 2.2.5.7 0 1.3-.2 1.6-.5.3-.2.5-.5.5-.8 0-.6-.7-1-2-1.3-2-.4-3.3-.7-3.8-1-1.4-.6-2-1.6-2-3 0-1.1.3-2 1-2.8 1-1 2.3-1.4 4-1.4 1.5 0 2.7.2 3.6.6l.2.1c1.3.7 2 1.9 2 3.5h-3.4c-.1-.6-.3-1-.5-1.2-.3-.3-1-.5-1.8-.5s-1.3.1-1.6.4a1 1 0 0 0 -.4.8c0 .5.7 1 2 1.2l3.4.9h.1z"></path><path clip-rule="evenodd" d="m105 49c1.3 0 2.6.3 3.7 1v-.7h3v12.6h-3v-.7c-1 .7-2.3 1.1-3.6 1.1a6.7 6.7 0 0 1 0-13.4zm0 10.3c1.8 0 3.3-1.3 3.7-3v-1.3c-.4-1.7-1.9-3-3.6-3a3.7 3.7 0 0 0 0 7.4zm-14.4-10.3c1.4 0 2.6.3 3.6 1v-5h3.1v17h-3v-.8a6.7 6.7 0 1 1 -3.7-12.2zm0 10.3c1.8 0 3.3-1.3 3.6-3v-1.3c-.3-1.7-1.8-3-3.6-3a3.7 3.7 0 0 0 0 7.4z" fill-rule="evenodd"></path><path d="m114.3 45h-14.9l-15.4-26 11-6.5 10.1 17 9.3 15.4zm-40.1 0h-14.8l-1.7-3 11-6.5 2.5 4.2 3 5.1z"></path><path clip-rule="evenodd" d="m121.9 45.6h-.2v.9h-.4v-2.1h.8a1.4 1.4 0 0 1 .5 0l.3.2v.4l-.1.4-.4.2a.5.5 0 0 1 .1 0l.3.5.3.4h-.4l-.2-.3-.3-.5zm.3-1h-.5v.7h.8v-.3-.2h-.1l-.2-.1z" fill-rule="evenodd"></path><path clip-rule="evenodd" d="m122.2 47.4a2 2 0 0 1 -1-.3l-.7-.7a2 2 0 0 1 0-2l.7-.7c.3-.2.7-.2 1-.3a2 2 0 0 1 1.7 1c.2.3.2.7.2 1a2 2 0 0 1 -1.9 2zm-.8-3.4c-.3.1-.5.3-.6.6-.2.3-.3.5-.3.8s.1.6.3.8c.1.3.3.5.6.6.2.2.5.2.8.2s.5 0 .8-.2c.2-.1.5-.3.6-.6l.2-.8c0-.3 0-.5-.2-.8-.1-.3-.4-.5-.6-.6l-.8-.2c-.3 0-.6 0-.8.2z" fill-rule="evenodd"></path></g></svg>