<svg class="logotype-small" width="156" height="26" viewBox="0 0 156 26" fill="none" xmlns="http://www.w3.org/2000/svg"><path fill-rule="evenodd" clip-rule="evenodd" d="M83.2247 24.0454L81.168 20.7032C83.1753 19.858 84.7867 18.2692 85.6463 16.2885L89.035 18.316C87.8122 20.8106 85.7558 22.8408 83.2247 24.0454Z" fill="#DF4D62"></path><path d="M55.4084 25.2548V0.744542H59.4184V25.2548H55.4084Z" fill="#2F3036"></path><path d="M127.204 25.2562V0.746403H131.214V25.2562H127.204Z" fill="#2F3036"></path><path fill-rule="evenodd" clip-rule="evenodd" d="M3.63769 21.6653C-1.21256 16.8834 -1.21256 9.11865 3.63769 4.33557C8.48715 -0.448681 16.3637 -0.448681 21.2151 4.33557C21.6783 4.79202 22.0965 5.27677 22.4715 5.78433L18.7366 7.31762C18.6501 7.22444 18.5604 7.13402 18.4695 7.0432C15.1337 3.75095 9.71908 3.75095 6.38453 7.0432C3.04919 10.3292 3.04919 15.6685 6.38453 18.9588C9.71908 22.2475 15.1337 22.2475 18.4695 18.9588C18.6216 18.8059 18.7726 18.6471 18.9137 18.4866L22.6233 20.0101C22.2107 20.5896 21.7404 21.1467 21.2151 21.6653C16.3637 26.4487 8.48715 26.4487 3.63769 21.6653Z" fill="#2F3036"></path><path d="M96.1063 25.2562V8.17498L99.0563 12.0676L100.027 13.352V25.2562H96.1063ZM114.875 25.2562L96.2925 0.743652H101.291L114.667 18.3938C114.762 18.5172 114.964 18.4508 114.964 18.2951V0.743652H118.883V25.2562H114.875Z" fill="#2F3036"></path><path d="M138.565 22.3237L137.564 21.5142L139.947 18.6886L141.7 19.99C143.599 21.1844 145.554 21.7851 147.569 21.7851C148.909 21.7851 149.993 21.5024 150.804 20.9178C151.618 20.3328 152.03 19.5437 152.03 18.5664C152.03 17.5992 151.644 16.8345 150.872 16.2884C150.118 15.7561 148.836 15.2828 147.049 14.8601C145.266 14.4359 143.92 14.053 143 13.7015C142.086 13.352 141.278 12.8952 140.573 12.3334C139.181 11.2939 138.475 9.69767 138.475 7.51528C138.475 5.34352 139.275 3.68167 140.864 2.5144C142.465 1.33495 144.457 0.743652 146.84 0.743652C148.374 0.743652 149.9 0.992511 151.415 1.49024L153.524 2.3882L155.208 3.51261L153.197 6.31578L152.038 5.51689C151.542 5.25034 150.982 5.01327 150.362 4.8049C149.121 4.38816 147.896 4.17822 146.683 4.17822C145.469 4.17822 144.459 4.42158 143.663 4.92245C142.851 5.43316 142.448 6.20923 142.448 7.22434C142.448 8.24221 142.851 9.03403 143.661 9.57776C144.451 10.1097 146.106 10.6687 148.593 11.2616C151.072 11.8513 152.922 12.6793 154.158 13.7322C155.382 14.7689 156 16.3046 156 18.3635C156 20.4106 155.221 22.0654 153.657 23.3372C152.092 24.615 150.035 25.2562 147.465 25.2562C144.173 25.2562 141.208 24.2804 138.565 22.3237Z" fill="#2F3036"></path><path fill-rule="evenodd" clip-rule="evenodd" d="M28.4949 25.2562V0.743652H39.4459C41.245 0.743652 43.0559 1.30546 44.5938 2.46801C48.2978 5.26999 48.9966 10.5068 46.1537 14.158C45.1008 15.5112 43.7053 16.4583 42.184 16.9713L42.0283 17.0232L47.7888 25.2527H42.9401L34.7482 13.5584H39.4459C40.8166 13.5584 42.1576 12.9522 43.0472 11.8081C44.572 9.84941 44.1977 7.03328 42.2074 5.52712C41.3817 4.90279 40.4146 4.60282 39.4459 4.60557H32.4867V25.2562H28.4949Z" fill="#2F3036"></path><path d="M77.8333 25.2562C70.9737 25.2562 65.4018 19.7639 65.4018 12.9993C65.4018 6.23597 70.9737 0.743652 77.8333 0.743652C84.6917 0.743652 90.2609 6.23597 90.2609 12.9993C90.2609 14.1839 90.0917 15.3296 89.7728 16.4119L86.2058 14.4178C86.2861 13.9582 86.3248 13.4841 86.3248 12.9993C86.3248 8.37629 82.5188 4.62365 77.8333 4.62365C73.1451 4.62365 69.3382 8.37629 69.3382 12.9993C69.3382 17.622 73.1451 21.3758 77.8333 21.3758C78.3226 21.3758 78.8036 21.3353 79.2708 21.2559L81.2947 24.7742C80.196 25.0876 79.0336 25.2562 77.8333 25.2562Z" fill="#2F3036"></path></svg>