<svg class="icon" fill="none" xmlns="http://www.w3.org/2000/svg" viewBox="0 0 56 56"><path fill="none" d="M0 0h56v56H0z"></path><path class="icon--fill" d="M28.6 33a1 1 0 01-1.2 0L4.6 14A.5.5 0 015 13h46.2c.4 0 .6.6.3.9L28.6 33zM3 16.3c0-.4.5-.6.8-.3l14.3 12.2c.4.4.5 1 0 1.5L4 44.1c-.4.4-.9.1-.9-.3V16.3zM53 16.3c0-.4-.5-.6-.8-.3L37.9 28.2a1 1 0 000 1.5L52 44.1c.4.4.9.1.9-.3V16.3z" fill="#000"></path><path class="icon--fill" d="M28.6 36.2a1 1 0 01-1.2 0l-6-5a1 1 0 00-1.4.2L7.3 44c-.4.4-.1.9.3.9h40.8c.4 0 .7-.5.3-.9L36 31.4a1 1 0 00-1.3-.1l-6 4.9z" fill="#000"></path></svg>