<svg class="icon" fill="none" xmlns="http://www.w3.org/2000/svg" viewBox="0 0 56 56"><path fill="none" d="M0 0h56v56H0z"></path><path class="icon--stroke" d="M34 34v7.3H18.7L10.1 50v-8.7H7v-19h12M19 12v22h18.3l8.6 8.8v-8.7H49V12H19z" stroke="#000" stroke-width="2.2" stroke-linecap="round" stroke-linejoin="round"></path><mask id="a" fill="#fff"><path fill-rule="evenodd" clip-rule="evenodd" d="M29 23a2 2 0 11-4 0 2 2 0 014 0zm7 0a2 2 0 11-4 0 2 2 0 014 0zm5 2a2 2 0 100-4 2 2 0 000 4z"></path></mask><path class="icon--fill" fill-rule="evenodd" clip-rule="evenodd" d="M29 23a2 2 0 11-4 0 2 2 0 014 0zm7 0a2 2 0 11-4 0 2 2 0 014 0zm5 2a2 2 0 100-4 2 2 0 000 4z" fill="#000"></path></svg>