<svg class="icon" fill="none" xmlns="http://www.w3.org/2000/svg" viewBox="0 0 56 56"><path fill="none" d="M0 0h56v56H0z"></path><path class="icon--stroke" d="M13.5 39.9H4a1 1 0 01-1-1v-28c0-.5.4-.9 1-.9h48c.6 0 1 .4 1 1v27.9c0 .5-.4 1-1 1h-6.5m-19 0V26.4c0-1.5 2.5-2.4 3 0L31 34c2.7.1 7.9.5 8.5 2.9 2.5 10-7 17.8-20.5 1.9-1-1 2-3.9 7.5 1z" stroke="#000" stroke-width="3" stroke-linecap="round" stroke-linejoin="round"></path><mask class="icon--fill" id="a" fill="#000"><path fill-rule="evenodd" clip-rule="evenodd" d="M21 28a2 2 0 100-4 2 2 0 000 4zm14 0a2 2 0 100-4 2 2 0 000 4z"></path></mask><path class="icon--fill" fill-rule="evenodd" clip-rule="evenodd" d="M21 28a2 2 0 100-4 2 2 0 000 4zm14 0a2 2 0 100-4 2 2 0 000 4z" fill="#000"></path><path class="icon--fill" d="M20 26c0-.6.4-1 1-1v6a5 5 0 005-5h-6zm1 1a1 1 0 01-1-1h6a5 5 0 00-5-5v6zm1-1c0 .6-.4 1-1 1v-6a5 5 0 00-5 5h6zm-1-1c.6 0 1 .4 1 1h-6a5 5 0 005 5v-6zm13 1c0-.6.4-1 1-1v6a5 5 0 005-5h-6zm1 1a1 1 0 01-1-1h6a5 5 0 00-5-5v6zm1-1c0 .6-.4 1-1 1v-6a5 5 0 00-5 5h6zm-1-1c.6 0 1 .4 1 1h-6a5 5 0 005 5v-6z" fill="#000" mask="url(#a)"></path></svg>