<svg class="icon" viewBox="0 0 56 56" fill="none" xmlns="http://www.w3.org/2000/svg"><path class="icon--stroke" d="m 12.754442,38.998353 v 12.473638 m 0,-12.473638 -9.7017195,-4.85086 m 9.7017195,4.85086 9.701719,-4.85086 M 12.754442,51.471991 3.8188815,47.004211 C 3.3493185,46.76943 3.0527225,46.289472 3.0527225,45.76447 V 34.147493 m 9.7017195,17.324498 8.935561,-4.46778 c 0.469563,-0.234781 0.766158,-0.714739 0.766158,-1.239741 V 34.147493 m -19.4034385,0 9.0819185,-4.540959 c 0.390148,-0.195143 0.849455,-0.195143 1.239603,0 l 9.081917,4.540959 m 5.54384,-20.096418 v 12.473639 m 0,-12.473639 -9.701719,-4.8508599 m 9.701719,4.8508599 9.701719,-4.8508599 m -9.701719,17.3244989 -8.93556,-4.46778 c -0.469564,-0.234782 -0.766159,-0.71474 -0.766159,-1.239741 V 9.2002151 m 9.701719,17.3244989 8.93556,-4.46778 c 0.469564,-0.234782 0.766159,-0.71474 0.766159,-1.239741 V 9.2002151 m -19.403438,0 9.081918,-4.5409588 c 0.390147,-0.1951293 0.849454,-0.1951293 1.239602,0 l 9.081918,4.5409588 m 5.543839,29.7981379 v 12.473638 m 0,-12.473638 -9.701719,-4.85086 m 9.701719,4.85086 9.701719,-4.85086 m -9.701719,17.324498 -8.93556,-4.46778 C 33.840436,46.76943 33.54384,46.289472 33.54384,45.76447 V 34.147493 m 9.701719,17.324498 8.935561,-4.46778 c 0.469563,-0.234781 0.766158,-0.714739 0.766158,-1.239741 V 34.147493 m -19.403438,0 9.081918,-4.540959 c 0.390148,-0.195143 0.849455,-0.195143 1.239603,0 l 9.081917,4.540959 M 23.149141,24.099284 18.116998,31.977773 m 14.733862,-7.878489 5.54384,7.622779 m -4.85086,9.518773 H 22.456161" stroke="white" stroke-width="2.5" stroke-linecap="round" stroke-linejoin="round"></path></svg>