<svg class="icon" fill="none" xmlns="http://www.w3.org/2000/svg" viewBox="0 0 56 56"><path fill="none" d="M0 0h56v56H0z"></path><path class="icon--stroke" d="M28 41h25V10H3v31h25zm0 0v7h8.5-17" stroke="#000" stroke-width="3" stroke-linecap="round" stroke-linejoin="round"></path><mask class="icon--fill" id="a" fill="#000"><path fill-rule="evenodd" clip-rule="evenodd" d="M23 26a2 2 0 11-4 0 2 2 0 014 0zm7 0a2 2 0 11-4 0 2 2 0 014 0zm5 2a2 2 0 100-4 2 2 0 000 4z"></path></mask><path class="icon--fill" fill-rule="evenodd" clip-rule="evenodd" d="M23 26a2 2 0 11-4 0 2 2 0 014 0zm7 0a2 2 0 11-4 0 2 2 0 014 0zm5 2a2 2 0 100-4 2 2 0 000 4z" fill="#000"></path><path class="icon--fill" d="M21 31a5 5 0 005-5h-6c0-.6.4-1 1-1v6zm-5-5a5 5 0 005 5v-6c.6 0 1 .4 1 1h-6zm5-5a5 5 0 00-5 5h6c0 .6-.4 1-1 1v-6zm5 5a5 5 0 00-5-5v6a1 1 0 01-1-1h6zm2 5a5 5 0 005-5h-6c0-.6.4-1 1-1v6zm-5-5a5 5 0 005 5v-6c.6 0 1 .4 1 1h-6zm5-5a5 5 0 00-5 5h6c0 .6-.4 1-1 1v-6zm5 5a5 5 0 00-5-5v6a1 1 0 01-1-1h6zm1 0c0-.6.4-1 1-1v6a5 5 0 005-5h-6zm1 1a1 1 0 01-1-1h6a5 5 0 00-5-5v6zm1-1c0 .6-.4 1-1 1v-6a5 5 0 00-5 5h6zm-1-1c.6 0 1 .4 1 1h-6a5 5 0 005 5v-6z" fill="#000" mask="url(#a)"></path></svg>