<svg fill="none" xmlns="http://www.w3.org/2000/svg" viewBox="0 0 56 56">
  <path fill="#fff" fill-opacity=".01" d="M0 0h56v56H0z"/>
  <path d="M28 2a26 26 0 1026 26C54 13.74 42.26 2 28 2z" fill="#EB4B4B" fill-opacity=".05"/>
  <path d="M15.84 29.89h24.32c.63 0 1.26-.53 1.26-1.26v-1.26c0-.63-.63-1.26-1.26-1.26H15.84c-.74 0-1.26.63-1.26 1.26v1.26c0 .73.52 1.26 1.26 1.26zM54 28a26 26 0 10-52 0 26 26 0 0052 0zm-3.35 0A22.68 22.68 0 0128 50.65 22.62 22.62 0 015.35 28 22.68 22.68 0 0128 5.35 22.75 22.75 0 0150.65 28z" fill="#EB4B4B"/>
</svg>
