<svg fill="none" xmlns="http://www.w3.org/2000/svg" viewBox="0 0 2000 1400">
  <g clip-path="url(#clip0)">
    <g style="mix-blend-mode:multiply" opacity=".25" clip-path="url(#clip1)">
      <path d="M2013.93 1500.77l-106.75-320.33-213.49 213.55 320.24 106.78z" fill="#B2B2B2"/>
      <path d="M2227.41 1287.21l-106.74-320.33-213.49 213.56 320.23 106.77zM1907.18 1180.44l320.23 106.77-213.49 213.56-106.74-320.33z" fill="#fff"/>
      <path d="M1586.95 1500.77l-106.74-320.33-213.49 213.55 320.23 106.78z" fill="gray"/>
      <path d="M1800.44 1287.21l-106.75-320.33-213.48 213.56 320.23 106.77z" fill="#CCC"/>
      <path d="M2013.93 1073.66l-106.75-320.33-213.49 213.55 320.24 106.78z" fill="#E5E5E5"/>
      <path d="M2227.41 860.1l-106.74-320.33-213.49 213.56 320.23 106.77z" fill="#fff"/>
      <path d="M1480.21 1180.44l320.23 106.77-213.49 213.56-106.74-320.33z" fill="#CCC"/>
      <path d="M1693.69 966.88l320.24 106.78-213.49 213.55-106.75-320.33z" fill="#fff"/>
      <path d="M1907.18 753.33l320.23 106.77-213.48 213.56-106.75-320.34zM1159.97 1500.77l-106.74-320.33-213.49 213.55 320.23 106.78z" fill="#fff"/>
      <path d="M1373.46 1287.21l-106.74-320.33-213.49 213.56 320.23 106.77z" fill="#E5E5E5"/>
      <path d="M1586.95 1073.66l-106.74-320.33-213.49 213.55 320.23 106.78zM1800.44 860.1l-106.75-320.33-213.48 213.56 320.23 106.77zM2013.93 646.55L1907.18 326.2l-213.49 213.56 320.24 106.78z" fill="#CCC"/>
      <path d="M2227.41 433l-106.74-320.34-213.49 213.55L2227.41 433z" fill="#fff"/>
      <path d="M1053.23 1180.44l320.23 106.77-213.49 213.56-106.74-320.33zM1266.72 966.88l320.23 106.78-213.49 213.55-106.74-320.33z" fill="#CCC"/>
      <path d="M1480.21 753.33l320.23 106.77-213.49 213.56-106.74-320.34zM1693.69 539.77l320.24 106.78-213.49 213.55-106.75-320.33z" fill="#fff"/>
      <path d="M1907.18 326.21L2227.41 433l-213.48 213.56-106.75-320.34z" fill="#CCC"/>
      <path d="M733 1500.77l-106.75-320.33-213.48 213.55L733 1500.77z" fill="gray"/>
      <path d="M946.49 1287.21L839.74 966.88l-213.49 213.56 320.24 106.77z" fill="#E5E5E5"/>
      <path d="M1159.97 1073.66l-106.74-320.33-213.49 213.55 320.23 106.78z" fill="#CCC"/>
      <path d="M1373.46 860.1l-106.74-320.33-213.49 213.56 320.23 106.77z" fill="#E5E5E5"/>
      <path d="M1586.95 646.55L1480.21 326.2l-213.49 213.56 320.23 106.78z" fill="#B2B2B2"/>
      <path d="M1800.44 433l-106.75-320.34-213.48 213.55L1800.44 433z" fill="#fff"/>
      <path d="M2013.93 219.44L1907.18-100.9l-213.49 213.55 320.24 106.78z" fill="#CCC"/>
      <path d="M626.25 1180.44l320.24 106.77-213.5 213.56-106.74-320.33z" fill="#B2B2B2"/>
      <path d="M839.74 966.88l320.23 106.78-213.49 213.55-106.74-320.33zM1053.23 753.33l320.23 106.77-213.49 213.56-106.74-320.34zM1266.72 539.77l320.23 106.78-213.49 213.55-106.74-320.33z" fill="#B2B2B2"/>
      <path d="M1480.21 326.21L1800.44 433l-213.49 213.56-106.74-320.34zM1693.69 112.66l320.24 106.78-213.49 213.55-106.75-320.33z" fill="#fff"/>
      <path d="M1907.18-100.9L2227.41 5.88l-213.48 213.56-106.75-320.34zM306.02 1500.77l-106.74-320.33-213.49 213.55 320.23 106.78z" fill="#B2B2B2"/>
      <path d="M519.51 1287.21L412.77 966.88l-213.5 213.56 320.24 106.77z" fill="#E5E5E5"/>
      <path d="M733 1073.66L626.25 753.33 412.77 966.88 733 1073.66zM946.49 860.1L839.74 539.77 626.25 753.33 946.5 860.1z" fill="#B2B2B2"/>
      <path d="M1159.97 646.55L1053.23 326.2 839.74 539.77l320.23 106.78z" fill="#CCC"/>
      <path d="M1373.46 433l-106.74-320.34-213.49 213.55L1373.46 433z" fill="#fff"/>
      <path d="M1586.95 219.44L1480.21-100.9l-213.49 213.55 320.23 106.78zM199.28 1180.44l320.23 106.77-213.49 213.56-106.74-320.33z" fill="#CCC"/>
      <path d="M412.77 966.88L733 1073.66 519.5 1287.21 412.77 966.88z" fill="#B2B2B2"/>
      <path d="M626.25 753.33L946.5 860.1l-213.5 213.56-106.74-320.34z" fill="#E5E5E5"/>
      <path d="M839.74 539.77l320.23 106.78L946.48 860.1 839.75 539.77z" fill="#B2B2B2"/>
      <path d="M1053.23 326.21L1373.46 433l-213.49 213.56-106.74-320.34z" fill="#E5E5E5"/>
      <path d="M1266.72 112.66l320.23 106.78-213.49 213.55-106.74-320.33z" fill="#CCC"/>
      <path d="M1480.21-100.9L1800.44 5.88l-213.49 213.56-106.74-320.34z" fill="#E5E5E5"/>
      <path d="M92.53 1287.21L-14.2 966.88l-213.49 213.56 320.23 106.77z" fill="#B2B2B2"/>
      <path d="M306.02 1073.66L199.28 753.33-14.21 966.88l320.23 106.78z" fill="#CCC"/>
      <path d="M519.51 860.1L412.77 539.77l-213.5 213.56L519.52 860.1zM733 646.55L626.25 326.2 412.77 539.77 733 646.55z" fill="#E5E5E5"/>
      <path d="M946.49 433L839.74 112.65 626.25 326.2 946.5 433z" fill="#B2B2B2"/>
      <path d="M1159.97 219.44L1053.23-100.9 839.74 112.66l320.23 106.78zM-227.7 1180.44l320.23 106.77-213.48 213.56-106.75-320.33z" fill="#CCC"/>
      <path d="M-14.21 966.88l320.23 106.78-213.49 213.55L-14.2 966.88z" fill="#B2B2B2"/>
      <path d="M199.28 753.33L519.5 860.1l-213.49 213.56-106.74-320.34z" fill="#B2B2B2"/>
      <path d="M412.77 539.77L733 646.55 519.5 860.1 412.77 539.77z" fill="#CCC"/>
      <path d="M626.25 326.21L946.5 433l-213.5 213.56L626.26 326.2z" fill="#B2B2B2"/>
      <path d="M839.74 112.66l320.23 106.78-213.49 213.55-106.74-320.33z" fill="#CCC"/>
      <path d="M1053.23-100.9L1373.46 5.88l-213.49 213.56-106.74-320.34zM92.53 860.1L-14.2 539.77-227.7 753.33 92.53 860.1z" fill="#fff"/>
      <path d="M306.02 646.55L199.28 326.2-14.21 539.77l320.23 106.78z" fill="#CCC"/>
      <path d="M519.51 433L412.77 112.65 199.27 326.2 519.52 433z" fill="#B2B2B2"/>
      <path d="M733 219.44L626.25-100.9 412.77 112.66 733 219.44z" fill="#E5E5E5"/>
      <path d="M-227.7 753.33L92.53 860.1l-213.48 213.56-106.75-320.34z" fill="#fff"/>
      <path d="M-14.21 539.77l320.23 106.78L92.53 860.1-14.2 539.77z" fill="#CCC"/>
      <path d="M199.28 326.21L519.5 433 306.02 646.55 199.28 326.2zM412.77 112.66L733 219.44 519.5 432.99 412.77 112.66z" fill="#CCC"/>
      <path d="M626.25-100.9L946.5 5.88l-213.5 213.56L626.26-100.9z" fill="#B2B2B2"/>
      <path d="M92.53 433L-14.2 112.65-227.7 326.2 92.53 433z" fill="#CCC"/>
      <path d="M306.02 219.44L199.28-100.9-14.21 112.66l320.23 106.78zM-227.7 326.21L92.53 433l-213.48 213.56L-227.7 326.2z" fill="#fff"/>
      <path d="M-14.21 112.66l320.23 106.78L92.53 432.99-14.2 112.66z" fill="#fff"/>
      <path d="M199.28-100.9L519.5 5.88 306.02 219.44 199.28-100.9zM-227.7-100.9L92.53 5.88l-213.48 213.56L-227.7-100.9z" fill="#CCC"/>
    </g>
  </g>
  <defs>
    <clipPath id="clip0">
      <path fill="#fff" d="M0 0h2000v1400H0z"/>
    </clipPath>
    <clipPath id="clip1">
      <path fill="#fff" transform="translate(-85 -38)" d="M0 0h2170v1477H0z"/>
    </clipPath>
  </defs>
</svg>
